<svg width="17" height="17" viewBox="0 0 17 17" fill="none" xmlns="http://www.w3.org/2000/svg">
<path d="M0.839844 8.28772C0.839844 3.88147 4.40234 0.28772 8.83984 0.28772C13.2461 0.28772 16.8398 3.88147 16.8398 8.28772C16.8398 12.7252 13.2461 16.2877 8.83984 16.2877C4.40234 16.2877 0.839844 12.7252 0.839844 8.28772ZM12.4336 6.91272C12.7773 6.56897 12.7773 6.03772 12.4336 5.69397C12.0898 5.35022 11.5586 5.35022 11.2148 5.69397L7.83984 9.06897L6.43359 7.69397C6.08984 7.35022 5.55859 7.35022 5.21484 7.69397C4.87109 8.03772 4.87109 8.56897 5.21484 8.91272L7.21484 10.9127C7.55859 11.2565 8.08984 11.2565 8.43359 10.9127L12.4336 6.91272Z" fill="#008080"/>
</svg>
