<svg width="29" height="24" viewBox="0 0 29 24" fill="none" xmlns="http://www.w3.org/2000/svg">
<path d="M9.41699 17.4226C9.41699 17.4226 12.4675 20.0642 17.4544 19.5482C22.4413 19.0321 24.6164 16.3045 23.94 15.5181C23.2636 14.7318 19.7622 15.5181 19.7622 15.5181C19.7622 15.5181 12.7195 18.5284 9.41699 17.4226Z" fill="url(#paint0_linear_1153_1216)"/>
<path d="M21.0747 13.7489C21.0747 13.7489 19.523 16.3536 17.1887 17.7912C17.1754 17.8035 17.1489 17.8158 17.1224 17.828C14.7218 19.2902 11.5917 19.0936 9.41655 17.4349C10.6367 16.9803 11.7508 16.2553 11.8304 16.2062C10.9816 16.5748 10.0001 16.8451 9.42981 16.968C9.13802 17.0294 8.84624 16.9434 8.64729 16.7591L8.1433 16.2922C10.1328 15.2233 12.1753 13.6997 12.3079 13.6137C10.8755 14.4246 9.17781 15.1987 8.19635 15.641C7.8913 15.7762 7.51994 15.7147 7.26794 15.4936L6.04774 14.3632C8.7534 13.0485 11.0479 11.353 11.1805 11.2424C9.52265 12.2376 7.16183 13.1714 5.96816 13.6137C5.66311 13.7243 5.31827 13.6629 5.0928 13.4417L3.62061 12.0779C3.62061 12.0779 6.15384 11.1809 9.04518 9.84169C11.8569 8.5393 13.9923 7.17548 13.9923 7.17548L21.0747 13.7489Z" fill="#0066D0"/>
<path d="M20.2259 12.9625C18.1569 16.3659 14.178 19.1427 9.89404 17.7543C12.0427 19.1058 14.8942 19.1795 17.1224 17.828C17.1489 17.8157 17.1622 17.8034 17.1887 17.7911C19.523 16.3536 21.0748 13.7488 21.0748 13.7488L20.2259 12.9625Z" fill="#4992DD"/>
<path d="M26.6318 2.53112L26.0349 1.97822C25.5707 1.54818 24.8015 1.57276 24.3771 2.03965L19.2575 7.67925C18.7137 7.49495 18.0904 7.54409 17.5731 7.8144L16.1805 6.51201C15.8755 6.22942 15.451 6.11883 15.0399 6.21713C14.5492 6.32771 14.3767 6.8929 14.7348 7.22464L20.9552 12.9871C21.3133 13.3188 21.9234 13.1591 22.0428 12.7045C22.1489 12.3236 22.0295 11.9182 21.7245 11.6478L20.3318 10.3577C20.6236 9.87856 20.6767 9.31338 20.4777 8.79733L26.5655 4.05467C27.0695 3.6615 27.1092 2.96115 26.6318 2.53112Z" fill="#006EE0"/>
<path d="M22.0826 12.4342C22.0826 12.5202 22.0694 12.6185 22.0428 12.7045C21.9235 13.1591 21.3134 13.3188 20.9553 12.9871L20.5972 12.6554C20.9553 12.9871 21.5654 12.8274 21.6847 12.3728C21.7113 12.2868 21.7245 12.1885 21.7245 12.1025C21.7245 11.8321 21.6184 11.5618 21.4195 11.353L21.7378 11.6478C21.9633 11.869 22.0826 12.1516 22.0826 12.4342Z" fill="url(#paint1_linear_1153_1216)"/>
<path d="M26.5658 4.05463L20.4781 8.7973C20.6771 9.30105 20.624 9.87852 20.3322 10.3577L19.9741 10.026C20.2659 9.54678 20.319 8.9816 20.12 8.46555L26.2077 3.72289C26.7117 3.32972 26.7515 2.62938 26.2873 2.19934L26.6322 2.53108C27.1096 2.96112 27.0698 3.66146 26.5658 4.05463Z" fill="#6ABAFF"/>
<path d="M8.19645 4.58294L8.36887 5.0744C8.38214 5.11126 8.40866 5.13584 8.44845 5.14812L8.97897 5.30785C9.08508 5.34471 9.08508 5.47986 8.97897 5.51672L8.44845 5.67645C8.40866 5.68874 8.38214 5.71331 8.36887 5.75017L8.19645 6.24164C8.15667 6.33993 8.01077 6.33993 7.97098 6.24164L7.79856 5.75017C7.7853 5.71331 7.75878 5.68874 7.71899 5.67645L7.18846 5.51672C7.08236 5.47986 7.08236 5.34471 7.18846 5.30785L7.71899 5.14812C7.75878 5.13584 7.7853 5.11126 7.79856 5.0744L7.97098 4.58294C8.01077 4.47235 8.16993 4.47235 8.19645 4.58294Z" fill="#6ABAFF"/>
<path d="M19.9397 18.4004L20.1613 19.0473C20.1814 19.0843 20.2217 19.1213 20.262 19.1398L20.9669 19.3431C21.1079 19.38 21.1079 19.5649 20.9669 19.6018L20.262 19.8051C20.2217 19.8236 20.1814 19.8606 20.1613 19.8976L19.9397 20.5445C19.8995 20.6738 19.6981 20.6738 19.6578 20.5445L19.4362 19.8976C19.4161 19.8606 19.3758 19.8236 19.3355 19.8051L18.6306 19.6018C18.4897 19.5649 18.4897 19.38 18.6306 19.3431L19.3355 19.1398C19.3758 19.1213 19.4161 19.0843 19.4362 19.0473L19.6578 18.4004C19.6981 18.2711 19.8793 18.2711 19.9397 18.4004Z" fill="#6ABAFF"/>
<path d="M11.4721 3.45251L11.5915 3.79653C11.6047 3.82111 11.618 3.83339 11.6445 3.84568L12.0159 3.95626C12.0955 3.98083 12.0955 4.07913 12.0159 4.1037L11.6445 4.21428C11.618 4.22657 11.6047 4.23886 11.5915 4.26343L11.4721 4.60746C11.4456 4.68118 11.3395 4.68118 11.3129 4.60746L11.1936 4.26343C11.1803 4.23886 11.167 4.22657 11.1405 4.21428L10.7692 4.1037C10.6896 4.07913 10.6896 3.98083 10.7692 3.95626L11.1405 3.84568C11.167 3.83339 11.1803 3.82111 11.1936 3.79653L11.3129 3.45251C11.3395 3.37879 11.4456 3.37879 11.4721 3.45251Z" fill="#6ABAFF"/>
<path d="M17.4337 19.8325L17.5735 20.2173C17.5909 20.2494 17.6084 20.2654 17.6259 20.2654L18.0451 20.3937C18.1325 20.4257 18.1325 20.5219 18.0451 20.554L17.6259 20.6822C17.5909 20.6983 17.5735 20.7143 17.5735 20.7303L17.4337 21.1151C17.3988 21.1953 17.2939 21.1953 17.259 21.1151L17.1192 20.7303C17.1018 20.6983 17.0843 20.6822 17.0668 20.6822L16.6475 20.554C16.5602 20.5219 16.5602 20.4257 16.6475 20.3937L17.0668 20.2654C17.1018 20.2494 17.1192 20.2333 17.1192 20.2173L17.259 19.8325C17.2765 19.7524 17.3988 19.7524 17.4337 19.8325Z" fill="#6ABAFF"/>
<path d="M10.159 6.20483L10.2519 6.48742C10.2519 6.51199 10.2784 6.52428 10.2917 6.52428L10.5967 6.61029C10.663 6.62258 10.663 6.70858 10.5967 6.72087L10.2917 6.80688C10.2651 6.80688 10.2519 6.83145 10.2519 6.84374L10.159 7.12633C10.1458 7.18776 10.0529 7.18776 10.0397 7.12633L9.94682 6.84374C9.94682 6.81916 9.92029 6.80688 9.90703 6.80688L9.60198 6.72087C9.53567 6.70858 9.53567 6.62258 9.60198 6.61029L9.90703 6.52428C9.93356 6.52428 9.94682 6.49971 9.94682 6.48742L10.0397 6.20483C10.0529 6.14339 10.1325 6.14339 10.159 6.20483Z" fill="#6ABAFF"/>
<path d="M15.1197 8.21985C15.1197 8.21985 8.56772 11.9181 5.57027 12.6062C4.74796 12.7905 3.62061 12.0779 3.62061 12.0779C3.62061 12.0779 6.15384 11.1809 9.04518 9.84169C11.8569 8.5393 13.9923 7.17548 13.9923 7.17548L15.1197 8.21985Z" fill="url(#paint2_linear_1153_1216)"/>
<path d="M15.6768 10.284C14.2311 11.4635 8.91267 14.6826 7.66594 14.8669C7.12216 14.9407 6.04785 14.3386 6.04785 14.3386C8.75351 13.0485 11.048 11.3406 11.1806 11.2424C13.2364 9.74338 14.1914 8.95703 14.1914 8.95703L15.6768 10.284Z" fill="url(#paint3_linear_1153_1216)"/>
<path d="M21.0349 13.0484C21.0084 13.0361 20.9819 13.0116 20.9554 12.987L14.735 7.22454C14.6024 7.10167 14.5493 6.95423 14.5493 6.7945C14.5493 6.53648 14.735 6.27846 15.04 6.20474C15.4512 6.10645 15.8889 6.21703 16.1807 6.49962L16.4857 6.78222C16.1939 6.56106 15.8093 6.48734 15.4379 6.57334C15.1329 6.64706 14.9472 6.90508 14.9472 7.16311C14.9472 7.31055 15.0135 7.47027 15.1329 7.58085L21.0349 13.0484Z" fill="url(#paint4_linear_1153_1216)"/>
<path d="M26.3405 2.26076C25.8763 1.91673 25.1734 1.96588 24.7755 2.4082L19.6559 8.04779C19.1122 7.86349 18.4888 7.91264 17.9848 8.18295L17.5869 7.81435C18.1042 7.54404 18.7143 7.50718 19.2581 7.67919L24.3776 2.0396C24.802 1.5727 25.5713 1.53584 26.0355 1.97817L26.3405 2.26076Z" fill="url(#paint5_radial_1153_1216)"/>
<path d="M12.8784 0C13.263 0 13.6477 0.0122867 14.019 0.0491468C7.44056 0.577475 2.28124 5.70103 2.28124 11.9304C2.28124 18.1597 7.44056 23.271 14.019 23.8116C13.6477 23.8485 13.263 23.8608 12.8784 23.8608C5.76942 23.8485 0 18.516 0 11.9304C0 5.34471 5.76942 0 12.8784 0Z" fill="#008080"/>
<path d="M14.019 23.8116C13.6477 23.8485 13.263 23.8608 12.8784 23.8608C5.76942 23.8485 0 18.516 0 11.9304C0 11.7215 0.013263 11.5126 0.013263 11.2915C0.265261 15.813 3.23618 19.6587 7.4273 21.4772C9.29738 22.7673 11.5521 23.6027 14.019 23.8116Z" fill="#008080"/>
<path d="M14.0191 0.0491468C14.3905 0.0122867 14.7751 0 15.1597 0C18.197 0 20.9822 0.970649 23.1839 2.60478L22.1891 3.6983C20.0936 1.6587 17.2155 0.307167 14.0191 0.0491468Z" fill="#0066D0"/>
<path d="M28.0249 11.9304C28.0249 18.516 22.2555 23.8608 15.1465 23.8608C14.7619 23.8608 14.3772 23.8485 14.0059 23.8116C20.5843 23.2833 25.7436 18.1597 25.7436 11.9304C25.7436 9.95221 25.2264 8.09692 24.3112 6.46279L25.8232 5.28327C27.2158 7.17542 28.0249 9.46075 28.0249 11.9304Z" fill="#0066D0"/>
<path d="M25.8365 5.271L24.3245 6.45052C24.5765 6.90513 24.8019 7.37202 24.9876 7.8512L26.7649 6.75769C26.4864 6.24165 26.1813 5.73789 25.8365 5.271Z" fill="#0066D0"/>
<path d="M28.0249 11.9304C28.0249 18.516 22.2555 23.8608 15.1465 23.8608C14.7619 23.8608 14.3772 23.8485 14.0059 23.8116C16.4595 23.615 18.7275 22.7795 20.5843 21.4772C24.7754 19.6587 27.7464 15.813 27.9984 11.2915C28.0249 11.5004 28.0249 11.7092 28.0249 11.9304Z" fill="#0066D0"/>
<defs>
<linearGradient id="paint0_linear_1153_1216" x1="24.5068" y1="17.6291" x2="8.65455" y2="16.7705" gradientUnits="userSpaceOnUse">
<stop stop-color="white" stop-opacity="0"/>
<stop offset="0.2451" stop-color="#F1F1F1" stop-opacity="0.2451"/>
<stop offset="0.7032" stop-color="#CECECE" stop-opacity="0.7032"/>
<stop offset="1" stop-color="#B3B3B3"/>
</linearGradient>
<linearGradient id="paint1_linear_1153_1216" x1="20.9079" y1="11.9896" x2="21.9958" y2="12.8552" gradientUnits="userSpaceOnUse">
<stop stop-color="#6ABAFF" stop-opacity="0"/>
<stop offset="0.1699" stop-color="#6DACFF" stop-opacity="0.1699"/>
<stop offset="0.4891" stop-color="#7788FF" stop-opacity="0.4891"/>
<stop offset="0.9201" stop-color="#854FFF" stop-opacity="0.9201"/>
<stop offset="1" stop-color="#8843FF"/>
</linearGradient>
<linearGradient id="paint2_linear_1153_1216" x1="12.5424" y1="10.8677" x2="-0.0917326" y2="6.28145" gradientUnits="userSpaceOnUse">
<stop stop-color="white" stop-opacity="0"/>
<stop offset="1" stop-color="white"/>
</linearGradient>
<linearGradient id="paint3_linear_1153_1216" x1="12.49" y1="12.0161" x2="0.477249" y2="11.1272" gradientUnits="userSpaceOnUse">
<stop stop-color="white" stop-opacity="0"/>
<stop offset="1" stop-color="white"/>
</linearGradient>
<linearGradient id="paint4_linear_1153_1216" x1="14.7333" y1="5.9011" x2="16.6061" y2="8.67049" gradientUnits="userSpaceOnUse">
<stop stop-color="white" stop-opacity="0"/>
<stop offset="1" stop-color="white"/>
</linearGradient>
<radialGradient id="paint5_radial_1153_1216" cx="0" cy="0" r="1" gradientUnits="userSpaceOnUse" gradientTransform="translate(19.2528 3.38902) scale(6.93154 6.42128)">
<stop stop-color="white"/>
<stop offset="1" stop-color="white" stop-opacity="0"/>
</radialGradient>
</defs>
</svg>
