<svg width="355" height="740" viewBox="0 0 355 740" fill="none" xmlns="http://www.w3.org/2000/svg">
<g opacity="0.1">
<path d="M281.208 603.982C310.351 599.115 303.286 588.053 311.234 551.77C314.766 562.389 318.299 600 344.792 602.212C331.104 603.097 326.247 611.504 322.714 619.911C319.182 628.319 315.649 639.381 313.442 647.788C309.909 641.593 315.208 614.159 281.208 603.982Z" fill="white"/>
<path d="M313.442 650C312.558 650 311.675 649.558 311.675 648.673C310.351 647.345 310.351 644.69 309.909 641.593C308.584 630.973 305.935 613.717 280.766 606.195C279.442 606.195 279 604.867 279 603.982C279 603.097 279.883 602.212 280.766 601.77C301.519 598.673 302.403 592.478 305.494 573.009C306.377 567.257 307.26 560.177 309.468 551.327C309.468 550.885 310.351 550 311.234 550C312.117 550 313 550.442 313.442 551.327C314.325 553.097 314.766 556.195 315.649 559.292C319.182 573.894 324.922 598.673 345.234 600.442C346.558 600.442 347.442 601.327 347 602.655C347 603.982 346.117 604.867 344.792 604.867C332.429 605.31 328.013 613.274 324.481 621.239C320.948 629.204 317.857 640.265 315.208 648.673C315.208 649.558 314.325 650 313.442 650ZM289.156 604.867C309.026 613.274 312.558 629.204 313.883 638.938C316.091 632.301 318.299 625.221 320.948 619.469C324.039 612.389 328.013 605.752 335.961 602.655C320.506 595.575 315.208 574.779 312.117 561.947C311.234 566.372 310.792 570.354 310.351 573.894C307.26 591.15 305.935 600 289.156 604.867Z" fill="white"/>
</g>
<g opacity="0.1">
<path d="M295.614 237.097C294.646 237.097 294 236.452 294 235.484C294 234.516 294.646 233.871 295.614 233.871C299.487 233.548 302.714 233.548 305.942 233.226C309.169 232.903 312.397 232.581 316.27 232.581C317.238 232.581 317.884 233.226 317.884 234.194C317.884 235.161 317.238 235.806 316.27 235.806C312.397 236.129 309.169 236.129 305.942 236.452C302.714 236.774 299.487 236.774 295.614 237.097Z" fill="white"/>
<path d="M327.889 225.484C326.921 225.484 326.275 224.839 326.275 223.871L324.984 201.613C324.984 200.645 325.63 200 326.598 200C327.566 200 328.212 200.645 328.212 201.613L329.503 223.871C329.503 224.516 328.857 225.484 327.889 225.484Z" fill="white"/>
<path d="M353.386 235.806H337.249C336.28 235.806 335.635 235.161 335.635 234.194C335.635 233.226 336.28 232.581 337.249 232.581H353.386C354.354 232.581 355 233.226 355 234.194C355 234.839 354.354 235.806 353.386 235.806Z" fill="white"/>
<path d="M327.889 270C326.921 270 326.275 269.032 326.275 268.387C326.921 261.29 326.921 254.194 326.275 247.419C326.275 246.452 326.921 245.806 327.889 245.806C328.857 245.806 329.503 246.452 329.503 247.419C330.148 254.516 330.148 261.935 329.503 269.032C329.503 269.355 328.857 270 327.889 270Z" fill="white"/>
</g>
<path opacity="0.1" d="M125.293 57.1424C124.837 56.8645 124.52 56.3587 124.57 55.7637C125.435 49.7245 126.3 43.6852 129.495 38.4401C133.106 32.5108 139.038 28.9326 146 28.7958C151.176 28.5098 157.255 30.3364 162.271 33.3923C163.105 32.024 164.256 31.1616 165.317 29.9322C171.309 24.202 180.572 22.3404 189.853 24.5547C200.552 27.0074 210.526 35.2713 213.082 43.3942C213.656 46.5579 213.407 49.5329 213.208 51.9129C212.542 55.5721 211.787 58.8643 210.437 62.1068C212.767 62.9009 214.959 63.923 216.961 65.7681C224.02 71.6312 224.424 79.6939 222.875 85.3164C220.254 93.7253 213.706 100.368 204.572 103.558C203.838 103.736 203.154 103.32 202.837 102.814C202.658 102.08 203.075 101.396 203.581 101.079C211.982 98.0664 217.884 91.9692 220.316 84.3834C221.816 79.3559 221.312 72.4833 215.483 67.6817C213.569 66.2035 211.517 64.9533 209.415 64.2981C207.559 67.8578 205.109 71.3677 202.113 74.2328C198.839 77.554 194.941 78.3065 191.154 76.3121C188.051 74.7343 186.197 71.1041 187.041 68.1789C187.746 65.4816 190.276 63.8957 192.388 62.9939C196.385 61.0513 202.346 59.992 207.879 61.1738C209.229 57.9314 210.212 54.778 210.51 51.208C210.799 49.1949 211.137 46.5868 210.285 43.8792C208.225 36.9962 198.796 29.3771 189.148 27.2519C180.69 25.2263 172.389 27.0485 166.953 31.8665C166.03 32.8679 165.107 33.8692 164.324 34.6425C165.87 36.2099 167.556 37.5492 168.735 39.2057C171.639 43.1634 172.342 47.6561 170.853 51.1266C169.414 54.0021 166.657 55.4491 163.176 55.5175C160.657 55.5465 157.276 54.4248 156.513 52.0842C156.107 51.2114 156.206 50.0214 156.256 49.4263C157.21 43.7541 158.571 38.9547 160.793 35.3059C156.46 32.6666 150.977 30.8898 146.167 31.0867C137.738 31.58 133.581 36.8645 131.775 39.8292C128.858 44.6182 127.993 50.6574 127.039 56.3297C126.85 57.1527 126.344 57.4699 125.521 57.2813L125.293 57.1424ZM206.579 63.8213C201.73 63.0562 196.87 63.8481 193.379 65.4734C191.128 66.6033 189.838 67.6938 189.372 68.9729C188.994 70.619 190.124 72.8705 192.176 74.1207C195.736 75.9763 198.682 73.7062 199.743 72.4768C202.689 70.2067 204.862 67.1529 206.579 63.8213ZM162.796 37.151C160.712 40.5718 159.401 44.7762 158.586 50.2204C158.537 50.8154 158.398 51.0435 158.487 51.4104C158.982 52.6502 161.084 53.3054 162.641 53.3158C165.16 53.2868 167.045 52.2461 167.928 50.2827C169.228 47.6353 168.565 44.1046 166.067 41.0197C165.482 39.4129 164.392 38.1234 162.796 37.151Z" fill="white"/>
<path opacity="0.1" d="M6.5632 672.921C6.02901 673.246 5.65753 673.839 5.71585 674.536C6.72886 681.609 7.74186 688.683 11.4841 694.827C15.7145 701.771 22.6619 705.962 30.816 706.123C36.8793 706.458 43.9987 704.318 49.8748 700.739C50.851 702.342 52.1988 703.352 53.4421 704.792C60.4601 711.503 71.3096 713.684 82.1806 711.09C94.7125 708.217 106.394 698.538 109.388 689.024C110.06 685.318 109.768 681.834 109.535 679.046C108.755 674.76 107.871 670.904 106.29 667.106C109.019 666.176 111.586 664.979 113.932 662.818C122.199 655.951 122.672 646.507 120.858 639.921C117.788 630.072 110.119 622.292 99.4202 618.555C98.5606 618.346 97.7593 618.834 97.3878 619.427C97.1791 620.287 97.6672 621.088 98.2597 621.459C108.099 624.988 115.013 632.129 117.862 641.014C119.618 646.903 119.028 654.953 112.2 660.577C109.959 662.308 107.555 663.772 105.093 664.54C102.919 660.37 100.049 656.259 96.54 652.903C92.7056 649.013 88.1405 648.132 83.7042 650.468C80.0693 652.316 77.8987 656.568 78.8872 659.994C79.713 663.153 82.6756 665.011 85.15 666.067C89.8318 668.343 96.813 669.583 103.294 668.199C104.875 671.997 106.026 675.69 106.376 679.872C106.714 682.23 107.11 685.284 106.112 688.456C103.699 696.518 92.6556 705.442 81.3548 707.931C71.4478 710.304 61.725 708.169 55.3578 702.526C54.2772 701.353 53.1966 700.18 52.2786 699.275C54.09 697.439 56.0641 695.87 57.4456 693.93C60.8473 689.294 61.6701 684.032 59.9264 679.967C58.241 676.599 55.0114 674.904 50.9344 674.824C47.9841 674.79 44.0237 676.104 43.1303 678.846C42.6544 679.868 42.771 681.262 42.8294 681.959C43.9467 688.602 45.54 694.224 48.1433 698.498C43.0685 701.589 36.646 703.67 31.0125 703.439C21.1393 702.862 16.2703 696.672 14.1551 693.2C10.7382 687.59 9.72522 680.517 8.60783 673.873C8.38681 672.909 7.7943 672.537 6.8303 672.758L6.5632 672.921ZM101.771 665.098C96.0916 665.994 90.3998 665.067 86.3105 663.163C83.6734 661.84 82.1629 660.562 81.6165 659.064C81.1744 657.136 82.4977 654.499 84.9015 653.035C89.0707 650.861 92.5213 653.52 93.7647 654.96C97.2153 657.619 99.7603 661.196 101.771 665.098ZM50.4889 696.336C48.0482 692.33 46.5133 687.405 45.5586 681.029C45.5003 680.332 45.3376 680.064 45.442 679.635C46.0222 678.183 48.4844 677.415 50.308 677.403C53.2583 677.437 55.4657 678.656 56.5002 680.956C58.0229 684.056 57.2461 688.192 54.3203 691.805C53.6357 693.687 52.3585 695.197 50.4889 696.336Z" fill="white"/>
</svg>
