<svg width="102" height="509" viewBox="0 0 102 509" fill="none" xmlns="http://www.w3.org/2000/svg">
<path d="M28.4736 414.839C26.3718 418.483 24.9331 422.168 23.7266 425.852L23.7227 425.865L23.7188 425.88C22.7014 429.752 22.1725 433.665 22.1709 437.133C22.117 441.34 22.8022 445.607 24.2676 449.441C25.7214 453.245 27.4625 456.593 29.9668 459.752C32.4689 462.908 35.4992 465.603 39.0527 467.839L39.0537 467.84C43.0712 470.35 47.1419 472.123 51.4883 473.421L51.4932 473.423C56.0792 474.737 60.0134 475.272 63.5283 475.024C67.0458 474.777 70.1267 473.746 72.7471 472.179C75.4069 470.587 77.3504 468.184 78.585 465.002C79.8067 461.853 80.5652 458.181 80.6191 453.973V453.967C80.6201 450.487 79.9336 446.239 78.7832 441.737C77.6899 437.459 76.1708 432.929 74.0195 428.133L94.7256 429.85C97.1387 436.009 98.8561 441.865 99.6514 447.408L99.6533 447.419L99.6543 447.429C100.574 452.38 100.94 457.296 101.086 462.047L101.136 464.072C101.081 471.601 100.093 478.549 97.7246 484.653L97.7217 484.662L97.7188 484.67C95.59 490.794 92.3534 495.614 87.9951 499.39C83.63 503.171 78.6358 505.701 72.5195 506.95L72.5146 506.952C66.6611 508.213 59.9397 507.741 52.0908 505.479C44.2521 503.219 37.241 499.565 31.0381 494.755C24.8209 489.934 19.3886 484.446 14.9951 478.067C10.5978 471.683 7.2167 464.641 4.83594 457.182C2.60562 450.193 1.4516 443.066 1.16113 435.983L1.11426 434.567C1.01263 429.228 1.63348 423.931 2.50098 418.631C3.33434 413.539 5.05755 408.734 7.45215 404.196L28.4736 414.839ZM98.7041 341.576L99.1826 408.754L2.75684 380.555L2.44531 348.583L79.3584 371.062L80.002 371.251L79.999 370.581L79.8379 336.047L98.7041 341.576ZM18.8242 228.562L19.124 268.291L19.127 268.661L19.4814 268.767L40.0605 274.886L40.707 275.078L40.7031 274.404L40.542 239.869L57.2539 244.757L57.417 279.589L57.4189 279.963L57.7783 280.067L79.0869 286.238L79.7314 286.425L79.7266 285.754L79.4287 246.323L98.293 251.854L98.668 323.912L2.24316 295.713L1.86816 223.653L18.8242 228.562ZM97.7158 177.099L77.5654 175.893L77.0342 175.86L77.0361 176.394L77.1328 202.307L77.1338 202.609L77.4023 202.748L97.8701 213.384L98.1797 238.391L1.69824 184.066L1.33594 138.887L97.3701 138.757L97.7158 177.099ZM15.5039 168.822L15.5898 171.028L15.6016 171.32L15.8613 171.454L61.3594 194.756L62.0947 195.133L62.0869 194.307L61.8848 173.273L61.8799 172.825L61.4336 172.781L16.0527 168.306L15.4814 168.249L15.5039 168.822ZM96.6846 28.8486L96.7783 60.9102L45.4971 84.6963L44.292 85.2549L45.5664 85.6289L96.9092 100.717L97.0693 124.611L1.14941 96.208L0.987305 65.1016L49.2158 39.8809L50.3164 39.3057L49.125 38.958L0.646484 24.8066L0.503906 0.667969L96.6846 28.8486Z" stroke="white" stroke-opacity="0.1"/>
</svg>
