<svg width="39" height="37" viewBox="0 0 39 37" fill="none" xmlns="http://www.w3.org/2000/svg">
<path d="M19.3244 20.1082L26.6365 25.6579C27.1752 26.0667 27.9387 25.9563 28.3427 25.4112C28.7467 24.8661 28.6376 24.0935 28.099 23.6847L21.3291 18.4988V8.01615C21.3291 7.33478 20.7838 6.7829 20.1104 6.7829C19.4371 6.7829 18.8917 7.33478 18.8917 8.01615V19.1154C18.8917 19.5249 19.0611 19.8936 19.3244 20.1082Z" fill="#4682B4"/>
<path d="M20.7196 0C11.7994 0 4.18192 6.51528 2.69511 15.4157L2.23201 14.7189C1.85482 14.1534 1.09679 14.0042 0.538023 14.3859C-0.0207485 14.7676 -0.16821 15.5347 0.208975 16.1001L2.64636 19.7999C2.84684 20.1082 3.17345 20.3098 3.53601 20.3487H3.65788C3.98083 20.3475 4.28977 20.2167 4.51706 19.9849L7.56379 16.9018C8.03969 16.4202 8.03969 15.6383 7.56379 15.1567C7.08789 14.6751 6.31524 14.6751 5.83934 15.1567L5.08375 15.9275C6.48708 7.18741 14.6261 1.25422 23.2624 2.67431C31.8987 4.0944 37.763 12.3301 36.3597 21.0701C35.1136 28.831 28.4894 34.5324 20.7196 34.5311C15.8192 34.6211 11.1845 32.2817 8.3072 28.2662C7.9166 27.7112 7.15553 27.5811 6.60712 27.9764C6.05871 28.3716 5.93013 29.1418 6.32072 29.6968C9.65263 34.3659 15.0295 37.092 20.7196 36.9976C30.8159 36.9976 39 28.7157 39 18.4988C39 8.28192 30.8159 0 20.7196 0Z" fill="#4682B4"/>
</svg>
