<svg width="37" height="35" viewBox="0 0 37 35" fill="none" xmlns="http://www.w3.org/2000/svg">
<path d="M27.9978 14.8361C28.5124 14.3216 28.5298 13.4695 28.0364 12.9327C27.5431 12.396 26.726 12.378 26.2115 12.8925L27.9978 14.8361ZM36.9869 13.8476C36.9781 13.1042 36.3932 12.509 35.6804 12.5182C34.9676 12.5274 34.3969 13.1375 34.4057 13.8809L36.9869 13.8476ZM23.6473 2.70514C24.3601 2.71406 24.9449 2.11863 24.9533 1.37523C24.9619 0.631813 24.3911 0.021934 23.6783 0.0130314L23.6473 2.70514ZM7.24384 9.24108L3.92429 5.77889L2.09897 7.68265L5.41852 11.1448L7.24384 9.24108ZM5.41852 11.1448C8.26095 14.1093 10.4826 16.4306 12.4473 17.9939C14.4417 19.581 16.3222 20.5134 18.5 20.5134V17.8211C17.1136 17.8211 15.778 17.2579 14.0131 15.8536C12.2185 14.4254 10.1379 12.2594 7.24384 9.24108L5.41852 11.1448ZM16.7791 2.69231H20.2209V4.87872e-07H16.7791V2.69231ZM20.2209 32.3077H16.7791V35H20.2209V32.3077ZM16.7791 32.3077C13.5238 32.3077 11.186 32.3059 9.3757 32.1013C7.58953 31.8994 6.47056 31.5133 5.59631 30.8508L4.07902 33.0289C5.46664 34.0805 7.09185 34.5513 9.09766 34.778C11.0793 35.0018 13.5813 35 16.7791 35V32.3077ZM4.67774e-07 17.5C4.67774e-07 20.8352 -0.0017722 23.4446 0.212931 25.5114C0.43025 27.6035 0.881667 29.2984 1.88984 30.7458L3.97824 29.1633C3.34306 28.2515 2.97282 27.0844 2.7793 25.2215C2.58317 23.3333 2.5814 20.8952 2.5814 17.5H4.67774e-07ZM5.59631 30.8508C4.9754 30.3804 4.42937 29.8108 3.97824 29.1633L1.88984 30.7458C2.50019 31.6219 3.23895 32.3924 4.07902 33.0289L5.59631 30.8508ZM34.4186 17.5C34.4186 20.8952 34.4169 23.3333 34.2207 25.2215C34.0271 27.0844 33.6569 28.2515 33.0217 29.1633L35.1101 30.7458C36.1184 29.2984 36.5698 27.6035 36.7871 25.5114C37.0017 23.4446 37 20.8352 37 17.5H34.4186ZM20.2209 35C23.4188 35 25.9206 35.0018 27.9023 34.778C29.9082 34.5513 31.5333 34.0805 32.9211 33.0289L31.4037 30.8508C30.5295 31.5133 29.4105 31.8994 27.6244 32.1013C25.814 32.3059 23.4762 32.3077 20.2209 32.3077V35ZM33.0217 29.1633C32.5707 29.8108 32.0246 30.3804 31.4037 30.8508L32.9211 33.0289C33.761 32.3924 34.4998 31.6219 35.1101 30.7458L33.0217 29.1633ZM16.7791 4.87872e-07C13.5813 4.87872e-07 11.0793 -0.00184834 9.09766 0.22208C7.09185 0.448736 5.46664 0.919549 4.079 1.97104L5.59631 4.14917C6.47056 3.4867 7.58953 3.10055 9.3757 2.89872C11.186 2.69416 13.5238 2.69231 16.7791 2.69231V4.87872e-07ZM4.079 1.97104C3.23895 2.60761 2.50019 3.37811 1.88984 4.25426L3.97824 5.83676C4.42937 5.18917 4.9754 4.61968 5.59631 4.14917L4.079 1.97104ZM26.2115 12.8925C22.6354 16.4676 20.6567 17.8211 18.5 17.8211V20.5134C21.8229 20.5134 24.5012 18.3316 27.9978 14.8361L26.2115 12.8925ZM37 17.5C37 16.1634 37 14.9488 36.9869 13.8476L34.4057 13.8809C34.4186 14.9621 34.4186 16.1589 34.4186 17.5H37ZM20.2209 2.69231C21.4887 2.69231 22.622 2.69233 23.6473 2.70514L23.6783 0.0130314C22.6345 -1.73091e-05 21.4846 4.87872e-07 20.2209 4.87872e-07V2.69231ZM34.4186 4.9359C34.4186 6.17501 33.4556 7.17949 32.2674 7.17949V9.8718C34.8812 9.8718 37 7.66191 37 4.9359H34.4186ZM32.2674 7.17949C31.0793 7.17949 30.1163 6.17501 30.1163 4.9359H27.5349C27.5349 7.66191 29.6537 9.8718 32.2674 9.8718V7.17949ZM30.1163 4.9359C30.1163 3.69679 31.0793 2.69231 32.2674 2.69231V4.87872e-07C29.6537 4.87872e-07 27.5349 2.20988 27.5349 4.9359H30.1163ZM32.2674 2.69231C33.4556 2.69231 34.4186 3.69679 34.4186 4.9359H37C37 2.20988 34.8812 4.87872e-07 32.2674 4.87872e-07V2.69231ZM2.5814 17.5C2.5814 14.565 2.58224 12.3396 2.71133 10.5575C2.84017 8.77859 3.09058 7.56914 3.52219 6.63492L1.1967 5.46621C0.559561 6.84527 0.27559 8.44498 0.137262 10.3547C-0.000842878 12.2612 4.67774e-07 14.6038 4.67774e-07 17.5H2.5814ZM3.52219 6.63492C3.65436 6.34886 3.8052 6.08517 3.97824 5.83676L1.88984 4.25426C1.62377 4.63623 1.39416 5.03882 1.1967 5.46621L3.52219 6.63492ZM3.92429 5.77889L3.27211 5.09869L1.44679 7.00244L2.09897 7.68265L3.92429 5.77889Z" fill="#4682B4"/>
</svg>
