<svg width="15" height="16" viewBox="0 0 15 16" fill="none" xmlns="http://www.w3.org/2000/svg">
<path d="M14.4727 5.70898C14.3262 5.5918 11.1914 3.07227 10.5176 2.51562C9.87305 2.01758 8.75977 0.875 7.5 0.875C6.21094 0.875 5.12695 1.98828 4.45312 2.51562C3.75 3.10156 0.615234 5.62109 0.498047 5.70898C0.175781 5.97266 0 6.35352 0 6.79297V14.4688C0 15.2598 0.615234 15.875 1.40625 15.875H13.5938C14.3555 15.875 15 15.2598 15 14.4688V6.79297C15 6.35352 14.7949 5.97266 14.4727 5.70898ZM13.5938 14.293C13.5938 14.4102 13.5059 14.4688 13.418 14.4688H1.58203C1.46484 14.4688 1.40625 14.4102 1.40625 14.293V6.88086C1.40625 6.82227 1.40625 6.76367 1.46484 6.73438C1.93359 6.35352 4.6582 4.18555 5.33203 3.62891C5.85938 3.18945 6.79688 2.28125 7.5 2.28125C8.17383 2.28125 9.11133 3.21875 9.63867 3.62891C10.3125 4.18555 13.0371 6.35352 13.5059 6.73438C13.5645 6.76367 13.5938 6.82227 13.5938 6.88086V14.293ZM12.6562 8.81445L12.1875 8.25781C12.0703 8.11133 11.8652 8.08203 11.6895 8.22852C10.8691 8.90234 9.99023 9.60547 9.63867 9.86914C9.11133 10.3086 8.17383 11.1875 7.5 11.1875C6.79688 11.1875 5.85938 10.2793 5.33203 9.86914C4.98047 9.60547 4.10156 8.90234 3.28125 8.22852C3.10547 8.08203 2.90039 8.11133 2.7832 8.25781L2.31445 8.81445C2.19727 8.96094 2.22656 9.19531 2.37305 9.3125C3.22266 9.98633 4.13086 10.7188 4.45312 10.9824C5.09766 11.4805 6.21094 12.5938 7.5 12.5938C8.75977 12.5938 9.84375 11.5098 10.5176 10.9824C10.8398 10.6895 11.748 9.98633 12.5977 9.3125C12.7441 9.19531 12.7734 8.96094 12.6562 8.81445Z" fill="#657080"/>
</svg>
