<svg width="36" height="45" viewBox="0 0 36 45" fill="none" xmlns="http://www.w3.org/2000/svg">
<path d="M17.9201 0C13.1674 0 8.6094 1.88799 5.24874 5.24865C1.88809 8.6093 9.72459e-05 13.1673 9.72459e-05 17.92C-0.0146507 22.3795 1.64854 26.6814 4.6593 29.9712L17.0689 44.408C17.174 44.5309 17.3046 44.6297 17.4515 44.6973C17.5985 44.765 17.7583 44.8001 17.9201 44.8001C18.0819 44.8001 18.2417 44.765 18.3887 44.6973C18.5356 44.6297 18.6662 44.5309 18.7713 44.408L31.1809 29.9712C34.1917 26.6814 35.8548 22.3795 35.8401 17.92C35.8401 13.1673 33.9521 8.6093 30.5914 5.24865C27.2308 1.88799 22.6728 0 17.9201 0ZM29.4785 28.5152L17.9201 41.9664L6.3617 28.5264C4.30527 26.2831 2.94609 23.4899 2.44991 20.4874C1.95373 17.4848 2.34201 14.4028 3.56738 11.6172C4.79276 8.83158 6.80227 6.46273 9.35083 4.79958C11.8994 3.13643 14.8769 2.25084 17.9201 2.25084C20.9633 2.25084 23.9408 3.13643 26.4894 4.79958C29.0379 6.46273 31.0474 8.83158 32.2728 11.6172C33.4982 14.4028 33.8865 17.4848 33.3903 20.4874C32.8941 23.4899 31.5349 26.2831 29.4785 28.5264V28.5152Z" fill="#4682B4"/>
<path d="M17.9201 10.08C16.3695 10.08 14.8537 10.5398 13.5644 11.4013C12.2751 12.2627 11.2703 13.4872 10.6769 14.9198C10.0835 16.3523 9.92823 17.9287 10.2307 19.4495C10.5332 20.9703 11.2799 22.3673 12.3764 23.4637C13.4728 24.5602 14.8698 25.3069 16.3906 25.6094C17.9114 25.9119 19.4878 25.7566 20.9203 25.1632C22.3529 24.5698 23.5773 23.565 24.4388 22.2757C25.3003 20.9864 25.7601 19.4706 25.7601 17.92C25.7601 15.8407 24.9341 13.8466 23.4638 12.3763C21.9935 10.906 19.9994 10.08 17.9201 10.08ZM17.9201 23.52C16.8125 23.52 15.7298 23.1916 14.8089 22.5762C13.888 21.9609 13.1702 21.0863 12.7464 20.063C12.3225 19.0398 12.2116 17.9138 12.4277 16.8275C12.6438 15.7412 13.1771 14.7434 13.9603 13.9602C14.7435 13.177 15.7413 12.6437 16.8276 12.4276C17.9139 12.2115 19.0399 12.3224 20.0631 12.7463C21.0864 13.1701 21.961 13.8879 22.5763 14.8088C23.1917 15.7297 23.5201 16.8124 23.5201 17.92C23.5201 19.4052 22.9301 20.8296 21.8799 21.8798C20.8297 22.93 19.4053 23.52 17.9201 23.52Z" fill="#4682B4"/>
</svg>
