<svg width="17" height="9" viewBox="0 0 17 9" fill="none" xmlns="http://www.w3.org/2000/svg">
<path d="M0.809473 5.24573H14.3632L11.8233 7.70466C11.0943 8.41125 12.1879 9.47395 12.9169 8.76737L16.7748 5.02528C16.919 4.88491 17 4.69486 17 4.49675C17 4.29864 16.919 4.1086 16.7748 3.96822L12.9139 0.226135C12.8412 0.153795 12.7541 0.0964717 12.6579 0.057614C12.5616 0.0187563 12.4583 -0.000832229 12.3541 2.70959e-05C12.2001 0.000418117 12.0498 0.0453676 11.9224 0.129112C11.795 0.212856 11.6963 0.331578 11.6389 0.470054C11.5816 0.608531 11.5682 0.76045 11.6006 0.906332C11.6329 1.05222 11.7095 1.18541 11.8204 1.28884L14.3661 3.74777H0.768648C-0.301538 3.80147 -0.222805 5.29661 0.809473 5.24573Z" fill="white"/>
</svg>
