<svg width="29" height="24" viewBox="0 0 29 24" fill="none" xmlns="http://www.w3.org/2000/svg">
<path d="M9.41699 17.4226C9.41699 17.4226 12.4675 20.0643 17.4544 19.5482C22.4413 19.0322 24.6164 16.3045 23.94 15.5182C23.2636 14.7318 19.7622 15.5182 19.7622 15.5182C19.7622 15.5182 12.7195 18.5284 9.41699 17.4226Z" fill="url(#paint0_linear_1158_3534)"/>
<path d="M21.0747 13.7487C21.0747 13.7487 19.523 16.3535 17.1887 17.791C17.1754 17.8033 17.1489 17.8156 17.1224 17.8279C14.7218 19.29 11.5917 19.0934 9.41655 17.4347C10.6367 16.9801 11.7508 16.2552 11.8304 16.206C10.9816 16.5746 10.0001 16.8449 9.42981 16.9678C9.13802 17.0292 8.84624 16.9432 8.64729 16.7589L8.1433 16.292C10.1328 15.2231 12.1753 13.6995 12.3079 13.6135C10.8755 14.4244 9.17781 15.1985 8.19635 15.6408C7.8913 15.776 7.51994 15.7145 7.26794 15.4934L6.04774 14.363C8.7534 13.0483 11.0479 11.3528 11.1805 11.2422C9.52265 12.2374 7.16183 13.1712 5.96816 13.6135C5.66311 13.7241 5.31827 13.6627 5.0928 13.4415L3.62061 12.0777C3.62061 12.0777 6.15384 11.1808 9.04518 9.84151C11.8569 8.53912 13.9923 7.17529 13.9923 7.17529L21.0747 13.7487Z" fill="#0066D0"/>
<path d="M20.2259 12.9624C18.1569 16.3658 14.178 19.1426 9.89404 17.7542C12.0427 19.1058 14.8942 19.1795 17.1224 17.8279C17.1489 17.8156 17.1622 17.8034 17.1887 17.7911C19.523 16.3535 21.0748 13.7488 21.0748 13.7488L20.2259 12.9624Z" fill="#4992DD"/>
<path d="M26.632 2.53094L26.0352 1.97804C25.571 1.548 24.8017 1.57257 24.3773 2.03947L19.2578 7.67906C18.714 7.49476 18.0906 7.54391 17.5734 7.81422L16.1808 6.51183C15.8757 6.22923 15.4513 6.11865 15.0401 6.21695C14.5494 6.32753 14.377 6.89271 14.7351 7.22445L20.9554 12.9869C21.3135 13.3187 21.9236 13.1589 22.043 12.7043C22.1491 12.3234 22.0297 11.918 21.7247 11.6477L20.3321 10.3576C20.6239 9.87838 20.6769 9.31319 20.478 8.79715L26.5657 4.05449C27.0697 3.66131 27.1095 2.96097 26.632 2.53094Z" fill="#006EE0"/>
<path d="M22.0826 12.434C22.0826 12.52 22.0694 12.6183 22.0428 12.7043C21.9235 13.1589 21.3134 13.3187 20.9553 12.9869L20.5972 12.6552C20.9553 12.9869 21.5654 12.8272 21.6847 12.3726C21.7113 12.2866 21.7245 12.1883 21.7245 12.1023C21.7245 11.832 21.6184 11.5617 21.4195 11.3528L21.7378 11.6477C21.9633 11.8688 22.0826 12.1514 22.0826 12.434Z" fill="url(#paint1_linear_1158_3534)"/>
<path d="M26.5658 4.05451L20.4781 8.79717C20.6771 9.30093 20.624 9.8784 20.3322 10.3576L19.9741 10.0258C20.2659 9.54666 20.319 8.98147 20.12 8.46543L26.2077 3.72277C26.7117 3.32959 26.7515 2.62925 26.2873 2.19922L26.6322 2.53096C27.1096 2.96099 27.0698 3.66134 26.5658 4.05451Z" fill="#6ABAFF"/>
<path d="M8.19645 4.58294L8.36887 5.0744C8.38214 5.11126 8.40866 5.13584 8.44845 5.14812L8.97897 5.30785C9.08508 5.34471 9.08508 5.47986 8.97897 5.51672L8.44845 5.67645C8.40866 5.68874 8.38214 5.71331 8.36887 5.75017L8.19645 6.24164C8.15667 6.33993 8.01077 6.33993 7.97098 6.24164L7.79856 5.75017C7.7853 5.71331 7.75878 5.68874 7.71899 5.67645L7.18846 5.51672C7.08236 5.47986 7.08236 5.34471 7.18846 5.30785L7.71899 5.14812C7.75878 5.13584 7.7853 5.11126 7.79856 5.0744L7.97098 4.58294C8.01077 4.47235 8.16993 4.47235 8.19645 4.58294Z" fill="#6ABAFF"/>
<path d="M19.9397 18.4003L20.1613 19.0472C20.1814 19.0841 20.2217 19.1211 20.262 19.1396L20.9669 19.3429C21.1079 19.3799 21.1079 19.5647 20.9669 19.6016L20.262 19.805C20.2217 19.8234 20.1814 19.8604 20.1613 19.8974L19.9397 20.5443C19.8995 20.6737 19.6981 20.6737 19.6578 20.5443L19.4362 19.8974C19.4161 19.8604 19.3758 19.8234 19.3355 19.805L18.6306 19.6016C18.4897 19.5647 18.4897 19.3799 18.6306 19.3429L19.3355 19.1396C19.3758 19.1211 19.4161 19.0841 19.4362 19.0472L19.6578 18.4003C19.6981 18.2709 19.8793 18.2709 19.9397 18.4003Z" fill="#6ABAFF"/>
<path d="M11.4721 3.45251L11.5915 3.79653C11.6047 3.82111 11.618 3.83339 11.6445 3.84568L12.0159 3.95626C12.0955 3.98083 12.0955 4.07913 12.0159 4.1037L11.6445 4.21428C11.618 4.22657 11.6047 4.23886 11.5915 4.26343L11.4721 4.60746C11.4456 4.68118 11.3395 4.68118 11.3129 4.60746L11.1936 4.26343C11.1803 4.23886 11.167 4.22657 11.1405 4.21428L10.7692 4.1037C10.6896 4.07913 10.6896 3.98083 10.7692 3.95626L11.1405 3.84568C11.167 3.83339 11.1803 3.82111 11.1936 3.79653L11.3129 3.45251C11.3395 3.37879 11.4456 3.37879 11.4721 3.45251Z" fill="#6ABAFF"/>
<path d="M17.4337 19.8323L17.5735 20.2171C17.5909 20.2492 17.6084 20.2652 17.6259 20.2652L18.0451 20.3935C18.1325 20.4255 18.1325 20.5217 18.0451 20.5538L17.6259 20.6821C17.5909 20.6981 17.5735 20.7141 17.5735 20.7302L17.4337 21.1149C17.3988 21.1951 17.2939 21.1951 17.259 21.1149L17.1192 20.7302C17.1018 20.6981 17.0843 20.6821 17.0668 20.6821L16.6475 20.5538C16.5602 20.5217 16.5602 20.4255 16.6475 20.3935L17.0668 20.2652C17.1018 20.2492 17.1192 20.2332 17.1192 20.2171L17.259 19.8323C17.2765 19.7522 17.3988 19.7522 17.4337 19.8323Z" fill="#6ABAFF"/>
<path d="M10.159 6.20477L10.2519 6.48736C10.2519 6.51193 10.2784 6.52422 10.2917 6.52422L10.5967 6.61023C10.663 6.62251 10.663 6.70852 10.5967 6.72081L10.2917 6.80681C10.2651 6.80681 10.2519 6.83139 10.2519 6.84367L10.159 7.12627C10.1458 7.1877 10.0529 7.1877 10.0397 7.12627L9.94682 6.84367C9.94682 6.8191 9.92029 6.80681 9.90703 6.80681L9.60198 6.72081C9.53567 6.70852 9.53567 6.62251 9.60198 6.61023L9.90703 6.52422C9.93356 6.52422 9.94682 6.49965 9.94682 6.48736L10.0397 6.20477C10.0529 6.14333 10.1325 6.14333 10.159 6.20477Z" fill="#6ABAFF"/>
<path d="M15.1197 8.21966C15.1197 8.21966 8.56772 11.918 5.57027 12.606C4.74796 12.7903 3.62061 12.0777 3.62061 12.0777C3.62061 12.0777 6.15384 11.1808 9.04518 9.84151C11.8569 8.53912 13.9923 7.17529 13.9923 7.17529L15.1197 8.21966Z" fill="url(#paint2_linear_1158_3534)"/>
<path d="M15.6768 10.284C14.2311 11.4635 8.91267 14.6826 7.66594 14.8669C7.12216 14.9407 6.04785 14.3386 6.04785 14.3386C8.75351 13.0485 11.048 11.3406 11.1806 11.2424C13.2364 9.74338 14.1914 8.95703 14.1914 8.95703L15.6768 10.284Z" fill="url(#paint3_linear_1158_3534)"/>
<path d="M21.0349 13.0483C21.0084 13.036 20.9819 13.0115 20.9554 12.9869L14.735 7.22442C14.6024 7.10155 14.5493 6.95411 14.5493 6.79438C14.5493 6.53636 14.735 6.27834 15.04 6.20462C15.4512 6.10633 15.8889 6.21691 16.1807 6.4995L16.4857 6.7821C16.1939 6.56094 15.8093 6.48722 15.4379 6.57322C15.1329 6.64694 14.9472 6.90496 14.9472 7.16298C14.9472 7.31042 15.0135 7.47015 15.1329 7.58073L21.0349 13.0483Z" fill="url(#paint4_linear_1158_3534)"/>
<path d="M26.3405 2.26082C25.8763 1.91679 25.1734 1.96594 24.7755 2.40826L19.6559 8.04785C19.1122 7.86355 18.4888 7.9127 17.9848 8.18301L17.5869 7.81441C18.1042 7.5441 18.7143 7.50724 19.2581 7.67925L24.3776 2.03966C24.802 1.57277 25.5713 1.53591 26.0355 1.97823L26.3405 2.26082Z" fill="url(#paint5_radial_1158_3534)"/>
<path d="M12.8784 0C13.263 0 13.6477 0.0122867 14.019 0.0491468C7.44056 0.577475 2.28124 5.70103 2.28124 11.9304C2.28124 18.1597 7.44056 23.271 14.019 23.8116C13.6477 23.8485 13.263 23.8608 12.8784 23.8608C5.76942 23.8485 0 18.516 0 11.9304C0 5.34471 5.76942 0 12.8784 0Z" fill="#008080"/>
<path d="M14.019 23.8116C13.6477 23.8485 13.263 23.8608 12.8784 23.8608C5.76942 23.8485 0 18.516 0 11.9304C0 11.7215 0.013263 11.5126 0.013263 11.2915C0.265261 15.813 3.23618 19.6587 7.4273 21.4772C9.29738 22.7673 11.5521 23.6027 14.019 23.8116Z" fill="#008080"/>
<path d="M14.0191 0.0491468C14.3905 0.0122867 14.7751 0 15.1597 0C18.197 0 20.9822 0.970649 23.1839 2.60478L22.1891 3.6983C20.0936 1.6587 17.2155 0.307167 14.0191 0.0491468Z" fill="#0066D0"/>
<path d="M28.0249 11.9304C28.0249 18.516 22.2555 23.8608 15.1465 23.8608C14.7619 23.8608 14.3772 23.8485 14.0059 23.8116C20.5843 23.2833 25.7436 18.1597 25.7436 11.9304C25.7436 9.95221 25.2264 8.09692 24.3112 6.46279L25.8232 5.28327C27.2158 7.17542 28.0249 9.46075 28.0249 11.9304Z" fill="#0066D0"/>
<path d="M25.8365 5.271L24.3245 6.45052C24.5765 6.90513 24.8019 7.37202 24.9876 7.8512L26.7649 6.75769C26.4864 6.24165 26.1813 5.73789 25.8365 5.271Z" fill="#0066D0"/>
<path d="M28.0249 11.9304C28.0249 18.516 22.2555 23.8608 15.1465 23.8608C14.7619 23.8608 14.3772 23.8485 14.0059 23.8116C16.4595 23.615 18.7275 22.7795 20.5843 21.4772C24.7754 19.6587 27.7464 15.813 27.9984 11.2915C28.0249 11.5004 28.0249 11.7092 28.0249 11.9304Z" fill="#0066D0"/>
<defs>
<linearGradient id="paint0_linear_1158_3534" x1="24.5068" y1="17.6292" x2="8.65455" y2="16.7705" gradientUnits="userSpaceOnUse">
<stop stop-color="white" stop-opacity="0"/>
<stop offset="0.2451" stop-color="#F1F1F1" stop-opacity="0.2451"/>
<stop offset="0.7032" stop-color="#CECECE" stop-opacity="0.7032"/>
<stop offset="1" stop-color="#B3B3B3"/>
</linearGradient>
<linearGradient id="paint1_linear_1158_3534" x1="20.9079" y1="11.9894" x2="21.9958" y2="12.855" gradientUnits="userSpaceOnUse">
<stop stop-color="#6ABAFF" stop-opacity="0"/>
<stop offset="0.1699" stop-color="#6DACFF" stop-opacity="0.1699"/>
<stop offset="0.4891" stop-color="#7788FF" stop-opacity="0.4891"/>
<stop offset="0.9201" stop-color="#854FFF" stop-opacity="0.9201"/>
<stop offset="1" stop-color="#8843FF"/>
</linearGradient>
<linearGradient id="paint2_linear_1158_3534" x1="12.5424" y1="10.8675" x2="-0.0917326" y2="6.28127" gradientUnits="userSpaceOnUse">
<stop stop-color="white" stop-opacity="0"/>
<stop offset="1" stop-color="white"/>
</linearGradient>
<linearGradient id="paint3_linear_1158_3534" x1="12.49" y1="12.0161" x2="0.477249" y2="11.1272" gradientUnits="userSpaceOnUse">
<stop stop-color="white" stop-opacity="0"/>
<stop offset="1" stop-color="white"/>
</linearGradient>
<linearGradient id="paint4_linear_1158_3534" x1="14.7333" y1="5.90098" x2="16.6061" y2="8.67037" gradientUnits="userSpaceOnUse">
<stop stop-color="white" stop-opacity="0"/>
<stop offset="1" stop-color="white"/>
</linearGradient>
<radialGradient id="paint5_radial_1158_3534" cx="0" cy="0" r="1" gradientUnits="userSpaceOnUse" gradientTransform="translate(19.2528 3.38908) scale(6.93154 6.42128)">
<stop stop-color="white"/>
<stop offset="1" stop-color="white" stop-opacity="0"/>
</radialGradient>
</defs>
</svg>
