<svg width="132" height="123" viewBox="0 0 132 123" fill="none" xmlns="http://www.w3.org/2000/svg">
<path d="M33.7125 44.2177C34.1229 43.8374 34.482 43.62 34.8923 43.5657C35.2514 43.5114 35.7131 43.5657 36.1748 43.8374C36.7391 44.1091 37.0982 44.4894 37.3034 45.0871C37.5086 45.6848 37.5086 46.2825 37.2521 46.8802L36.0722 49.8142L28.3262 46.3368L29.3521 43.8374C29.6599 43.131 30.0703 42.642 30.6346 42.3703C31.1989 42.0987 31.7632 42.0443 32.3274 42.316C32.7891 42.5333 33.1482 42.805 33.3534 43.0767C33.5073 43.3484 33.6612 43.7287 33.7125 44.2177ZM32.3274 46.0108L32.4813 45.6304C32.5839 45.3044 32.5839 45.0328 32.4813 44.8154C32.3787 44.5437 32.1735 44.3807 31.8657 44.2177C31.1476 43.8917 30.6859 44.1091 30.3781 44.8698L30.2755 45.0871L32.3274 46.0108ZM35.5079 47.4778L35.7131 46.9345C35.8157 46.6085 35.8157 46.3368 35.7131 46.1195C35.6105 45.8478 35.4053 45.6848 35.0975 45.5218C34.4307 45.1958 33.9177 45.4131 33.6099 46.1738L33.456 46.5541L35.5079 47.4778Z" fill="#0066D0"/>
<path d="M40.9457 40.1425L38.6885 43.8916L31.6094 39.0558L33.7639 35.5784L35.149 36.5021L33.9691 38.4038L35.4054 39.3818L36.3801 37.7518L37.7139 38.6755L36.7392 40.3055L38.2781 41.3922L39.5606 39.2732L40.9457 40.1425Z" fill="#0066D0"/>
<path d="M39.4581 32.2095C38.7399 32.2095 38.227 32.3725 37.9192 32.6986C37.7653 32.8616 37.714 33.0246 37.714 33.2419C37.714 33.4593 37.7653 33.6223 37.8679 33.7309C38.0731 33.9483 38.4835 34.0026 39.1503 33.8939C39.8172 33.7853 40.2789 33.7309 40.5867 33.7309C40.8945 33.7309 41.2536 33.7853 41.5614 33.8939C41.8691 34.0026 42.1769 34.2199 42.4847 34.4916C43.049 35.035 43.3568 35.6327 43.3568 36.339C43.4081 37.0454 43.1516 37.6974 42.6899 38.2951C42.2795 38.7841 41.7152 39.1101 40.9971 39.2731L39.5094 37.8061C40.3302 37.8061 40.9458 37.5887 41.3049 37.0997C41.4588 36.8824 41.5614 36.665 41.5614 36.4477C41.5614 36.2303 41.5101 36.013 41.3562 35.9043C41.151 35.687 40.7406 35.6327 40.1763 35.687C39.2529 35.7957 38.6374 35.85 38.2783 35.85C37.9192 35.7957 37.6114 35.7413 37.3036 35.6327C36.9958 35.524 36.7393 35.361 36.5341 35.1436C36.0724 34.709 35.8159 34.1113 35.7646 33.4592C35.7646 32.8072 35.9698 32.2095 36.4315 31.6662C36.7906 31.2315 37.2523 30.9598 37.8166 30.7425L39.4581 32.2095Z" fill="#0066D0"/>
<path d="M44.2289 26.8305L42.9464 27.9172L47.2555 33.4594L45.8704 34.6547L41.5614 29.1669L40.2789 30.3079L39.2529 28.9495L43.2029 25.5264L44.2289 26.8305Z" fill="#0066D0"/>
<path d="M56.9505 28.0802L56.3863 29.1125L55.309 28.4062C55.0012 28.8409 54.5908 29.1669 54.1291 29.3842C53.5136 29.6559 52.898 29.7646 52.3337 29.6016C51.7694 29.4386 51.3077 29.1125 50.846 28.6235C50.4357 28.1345 49.974 27.4282 49.6149 26.4501C48.9993 24.9287 48.7941 23.679 48.9993 22.8097C49.2045 21.886 49.7688 21.2883 50.5896 20.9079C51.2051 20.6363 51.8207 20.5276 52.3337 20.6906C52.898 20.8536 53.3597 21.1253 53.8213 21.6143C54.283 22.1033 54.6934 22.8097 55.1038 23.7877C55.7194 25.2548 55.9246 26.4501 55.7707 27.2652L56.9505 28.0802ZM54.1291 26.4501C53.8726 25.7981 53.7188 25.3634 53.5649 25.0374C53.2058 24.168 52.898 23.5704 52.7441 23.2444C52.5389 22.9183 52.3337 22.701 52.0772 22.5923C51.8207 22.4837 51.5642 22.4837 51.3077 22.5923C51.0512 22.701 50.846 22.9727 50.7947 23.353C50.7435 23.7334 50.8973 24.4397 51.3077 25.4721C51.6668 26.3415 51.9233 26.8848 52.1285 27.1565C52.3337 27.4282 52.5389 27.6455 52.7441 27.6998C53.0006 27.8085 53.2058 27.8085 53.4623 27.6998C53.5649 27.6455 53.7188 27.5368 53.8213 27.4282L52.2824 26.3958L52.898 25.3634L54.1291 26.4501Z" fill="#0066D0"/>
<path d="M62.4915 24.0052C62.6454 24.8202 62.5428 25.5266 62.1837 26.0699C61.8246 26.6676 61.209 27.048 60.3882 27.211C59.5162 27.4283 58.8493 27.3197 58.285 26.9393C57.7207 26.559 57.3616 25.9613 57.1565 25.0376L55.9253 19.0064L57.7207 18.5717L58.9006 24.3856C59.0032 24.8202 59.1058 25.0919 59.311 25.2549C59.5162 25.4179 59.7214 25.5266 60.0292 25.4179C60.2856 25.3636 60.4395 25.2006 60.5421 24.9832C60.6447 24.7116 60.6447 24.4399 60.5934 24.0595L59.3623 18.137L61.1577 17.7023L62.4915 24.0052Z" fill="#0066D0"/>
<path d="M69.8268 26.2328L68.0314 26.2871L67.7236 24.8744L65.5178 24.9288L65.2613 26.3415L63.4658 26.3958L65.6716 17.3762L67.5184 17.3218L69.8268 26.2328ZM67.4671 23.4617L66.6463 19.6039H66.595L65.8255 23.516L67.4671 23.4617Z" fill="#0066D0"/>
<path d="M74.3923 27.0481L70.4937 26.4504L71.7248 17.6481L73.5203 17.9198L72.5456 24.9834L74.6488 25.3094L74.3923 27.0481Z" fill="#0066D0"/>
<path d="M77.6243 18.7346L79.3685 19.2779L77.1113 27.8629L75.3672 27.3195L77.6243 18.7346Z" fill="#0066D0"/>
<path d="M85.4725 23.679L83.9849 22.9727L81.3174 29.6016L79.6245 28.8409L82.292 22.2663L80.7531 21.56L81.42 19.9843L86.1394 22.1577L85.4725 23.679Z" fill="#0066D0"/>
<path d="M92.5009 26.3414L88.3457 29.3842L86.2938 32.6987L84.8062 31.6663L86.8581 28.3518L87.6276 22.9183L89.2691 24.0594L88.7048 27.0478L91.0132 25.3091L92.5009 26.3414Z" fill="#0066D0"/>
<path d="M48.3845 93.1194C48.641 93.6084 48.7436 94.0431 48.7436 94.4778C48.6923 94.8582 48.5384 95.2928 48.2306 95.7819C47.8715 96.2709 47.4098 96.5969 46.8456 96.7055C46.2813 96.8142 45.717 96.6512 45.204 96.2709L42.7417 94.4235L47.6663 87.1969L49.7696 88.7726C50.3851 89.2073 50.7442 89.7506 50.8468 90.4027C51.0007 91.0547 50.8981 91.598 50.539 92.1414C50.2312 92.5761 49.9235 92.8478 49.6157 93.0108C49.2053 93.1194 48.8462 93.1738 48.3845 93.1194ZM44.9988 94.3148L45.4605 94.6408C45.717 94.8038 45.9735 94.9125 46.23 94.8582C46.4865 94.8038 46.6917 94.6408 46.8969 94.3148C47.3072 93.6628 47.2559 93.1194 46.6404 92.6304L46.3326 92.4131L44.9988 94.3148ZM47.0507 91.3264L47.3585 91.5437C47.615 91.7611 47.8715 91.8154 48.128 91.761C48.3845 91.7067 48.641 91.5437 48.7949 91.272C49.2566 90.62 49.154 90.0767 48.5384 89.5876L48.3332 89.4246L47.0507 91.3264Z" fill="#0066D0"/>
<path d="M52.7956 100.726L48.9995 98.8246L52.6417 90.783L56.1813 92.5761L55.4631 94.1518L53.5138 93.1738L52.7956 94.8038L54.4371 95.6188L53.7703 97.1402L52.1287 96.3252L51.3079 98.1183L53.4625 99.205L52.7956 100.726Z" fill="#0066D0"/>
<path d="M60.1314 96.4338C59.8236 95.7275 59.4645 95.2928 59.0541 95.1841C58.8489 95.1298 58.6951 95.1298 58.4899 95.2385C58.2847 95.3471 58.1821 95.4558 58.1308 95.6188C58.0282 95.8905 58.1821 96.3252 58.5412 96.8685C58.9002 97.4119 59.1567 97.8465 59.3106 98.1726C59.4645 98.4986 59.5158 98.8246 59.5671 99.1506C59.6184 99.5309 59.5671 99.9113 59.4645 100.292C59.2593 101.052 58.8489 101.596 58.2847 101.922C57.7204 102.248 57.0535 102.302 56.3353 102.085C55.7711 101.922 55.2581 101.487 54.7964 100.889L55.3607 98.8789C55.7198 99.6939 56.1814 100.129 56.7457 100.292C57.0022 100.346 57.2074 100.346 57.4126 100.292C57.6178 100.183 57.7204 100.074 57.823 99.857C57.9256 99.5309 57.7717 99.1506 57.4639 98.6616C56.9509 97.8466 56.6431 97.2489 56.5405 96.9228C56.4379 96.5425 56.3353 96.2165 56.3353 95.8905C56.3353 95.5645 56.3353 95.2385 56.4379 94.9124C56.6431 94.2604 57.0022 93.7714 57.5665 93.4997C58.1308 93.2281 58.7464 93.1737 59.4132 93.3911C59.9262 93.5541 60.3879 93.8801 60.7983 94.3148L60.1314 96.4338Z" fill="#0066D0"/>
<path d="M66.3896 96.5969L64.748 96.3795L63.9272 103.497L62.1318 103.28L62.9526 96.1622L61.311 95.9448L61.5162 94.2061L66.5948 94.8581L66.3896 96.5969Z" fill="#0066D0"/>
<path d="M77.214 102.737L76.3932 103.606L75.5212 102.682C75.1108 103.008 74.6491 103.226 74.1874 103.334C73.5205 103.443 72.9049 103.389 72.392 103.063C71.879 102.791 71.4686 102.356 71.1608 101.759C70.853 101.161 70.5965 100.346 70.4426 99.3137C70.1861 97.6836 70.2374 96.4339 70.6991 95.6189C71.1095 94.8039 71.7764 94.3148 72.6485 94.1518C73.3153 94.0432 73.9309 94.0975 74.3926 94.3692C74.9056 94.6409 75.316 95.0755 75.6237 95.6732C75.9315 96.2709 76.188 97.0859 76.3419 98.1183C76.5984 99.7484 76.5471 100.889 76.188 101.65L77.214 102.737ZM74.8543 100.4C74.7517 99.694 74.7004 99.205 74.6491 98.879C74.4952 97.901 74.3413 97.2489 74.2387 96.9229C74.1361 96.5426 73.9822 96.3252 73.7257 96.1079C73.5205 95.9449 73.264 95.8906 72.9562 95.8906C72.6484 95.9449 72.4433 96.1622 72.2894 96.5426C72.1355 96.9229 72.1355 97.6293 72.3407 98.716C72.4946 99.6397 72.5972 100.237 72.751 100.563C72.8536 100.889 73.0075 101.107 73.2127 101.27C73.4179 101.433 73.6231 101.487 73.8796 101.433C74.0335 101.433 74.1361 101.378 74.29 101.27L73.0588 99.9114L73.8796 99.0963L74.8543 100.4Z" fill="#0066D0"/>
<path d="M83.7287 97.3031C84.0364 98.0638 84.0364 98.7701 83.7287 99.4222C83.4722 100.074 82.9079 100.509 82.1384 100.835C81.3176 101.161 80.5995 101.215 80.0352 100.944C79.4196 100.672 78.9579 100.129 78.6501 99.2591L76.4956 93.4453L78.1884 92.7389L80.2404 98.2811C80.3943 98.6615 80.5482 98.9331 80.8047 99.0961C81.0098 99.2591 81.2663 99.2592 81.5228 99.1505C81.7793 99.0418 81.9332 98.8788 81.9845 98.6071C82.0358 98.3355 82.0358 98.0638 81.8819 97.6834L79.7787 92.0869L81.4715 91.3806L83.7287 97.3031Z" fill="#0066D0"/>
<path d="M91.7828 94.9668L90.2951 95.9992L89.3205 95.0211L87.4737 96.3252L87.9354 97.6835L86.4478 98.7159L83.8315 89.8593L85.3705 88.7726L91.7828 94.9668ZM88.3971 93.9344L85.7809 91.109L87.0633 94.8581L88.3971 93.9344Z" fill="#0066D0"/>
<path d="M96.2451 90.5656L93.3724 93.4453L87.5757 86.9795L88.9094 85.6754L93.5776 90.8916L95.1165 89.3159L96.2451 90.5656Z" fill="#0066D0"/>
<path d="M91.0127 83.3391L92.1413 81.8177L98.7074 87.4142L97.5789 88.9356L91.0127 83.3391Z" fill="#0066D0"/>
<path d="M96.7586 77.3079L95.9378 78.7749L101.786 82.4697L100.862 84.0997L95.0657 80.405L94.1937 81.9263L92.7573 81.057L95.3735 76.3842L96.7586 77.3079Z" fill="#0066D0"/>
<path d="M97.528 70.4617L101.273 74.0478L104.761 75.4062L104.145 77.1992L100.657 75.8409L95.4761 76.2755L96.1429 74.3195L99.0157 74.2108L96.8611 72.2004L97.528 70.4617Z" fill="#0066D0"/>
<path d="M17.9127 57.8016C19.1438 36.7196 32.4301 17.5936 52.6416 10.9647C72.8531 4.33582 93.988 12.1057 106.3 28.7866L113.789 26.3415C113.02 22.3207 109.993 19.0606 105.992 18.3543C102.709 17.7566 99.9386 15.3658 98.7074 12.1057C96.9633 7.43292 92.2438 4.82483 87.627 5.91154C84.3439 6.67223 80.9582 5.63986 78.5985 3.08611C75.3154 -0.500011 70.0317 -1.04336 66.133 1.89074C63.4142 3.95547 59.8746 4.33582 56.7967 2.9231C52.4364 0.967038 47.4091 2.59709 44.8442 6.83523C43.0488 9.82367 39.9196 11.6167 36.5852 11.5624C31.8658 11.5081 27.7619 15.0942 26.9924 20.0387C26.4282 23.5161 24.171 26.4502 21.0931 27.7543C16.6815 29.6017 14.2192 34.6005 15.2451 39.4907C15.9633 42.9681 14.9886 46.5542 12.5776 49.0536C9.70493 52.0421 8.93545 56.5519 10.4231 60.301L17.9127 57.8016ZM54.2318 16.5612C71.4167 10.9104 89.4737 17.1046 100.554 30.6884L103.17 29.819C91.5256 14.8225 72.0323 7.92194 53.5136 14.0075C34.9437 20.093 22.5808 37.4803 20.9905 56.8236L23.6068 55.9542C25.4535 38.0779 37.0469 22.2121 54.2318 16.5612ZM123.125 59.812C123.125 59.7577 123.074 59.7577 123.074 59.7033L116.713 61.7681C116.405 83.8281 102.863 104.095 81.9329 110.996C60.9519 117.896 38.9449 109.257 26.8898 91.272L20.5289 93.3368C20.5289 93.3911 20.5289 93.4454 20.5289 93.4998C20.4776 98.4986 23.8632 102.845 28.5314 103.66C31.8145 104.258 34.5846 106.649 35.8157 109.909C37.5599 114.582 42.2793 117.19 46.8962 116.103C50.1793 115.343 53.5649 116.375 55.9247 118.929C59.2077 122.515 64.4915 123.058 68.3901 120.124C71.1089 118.059 74.6485 117.679 77.7264 119.092C82.0868 121.048 87.114 119.418 89.6789 115.18C91.4743 112.191 94.6035 110.398 97.9379 110.452C102.657 110.507 106.761 106.921 107.531 101.976C108.095 98.4986 110.352 95.5645 113.43 94.2605C117.842 92.4131 120.304 87.4142 119.278 82.5241C118.56 79.0466 119.534 75.4605 121.946 72.9611C125.331 69.538 125.844 63.9415 123.125 59.812ZM81.0095 108.007C100.349 101.65 112.968 83.0674 113.686 62.8004L111.122 63.6155C110.096 82.4697 98.2457 99.531 80.24 105.454C62.2343 111.376 43.3566 104.367 32.4301 89.4247L29.8651 90.2397C41.356 106.595 61.6701 114.364 81.0095 108.007Z" fill="#0066D0"/>
<path d="M16.6303 90.6201L15.1426 88.7727C14.6809 90.6744 13.5011 91.9241 11.5517 92.5761C7.80695 93.8258 5.19074 91.8698 3.65179 86.7079L0.471303 75.8952C0.112215 74.6999 -0.0416798 73.6132 0.00961842 72.6895C0.0609167 71.7114 0.214811 70.8964 0.522601 70.2987C0.83039 69.701 1.24078 69.1577 1.75376 68.6687C2.26674 68.1797 2.77972 67.7993 3.29271 67.582C3.75439 67.3103 4.31867 67.093 4.88295 66.93C5.60113 66.7126 6.268 66.5496 6.93488 66.4409C7.55046 66.3323 8.11474 66.3323 8.62772 66.4409C9.14071 66.5496 9.55109 66.6583 9.96148 66.8213C10.3719 66.9843 10.731 67.256 11.09 67.6363C11.4491 67.9623 11.7056 68.3427 11.9621 68.723C12.2186 69.1034 12.4751 69.538 12.6803 70.1357C12.9368 70.6791 13.142 71.2224 13.2959 71.7114C13.4498 72.2005 13.655 72.7981 13.8601 73.4502L8.88421 75.0802L8.31993 73.1242C8.21734 72.7438 8.06344 72.4178 7.90955 72.2005C7.75565 71.9831 7.60176 71.8201 7.39657 71.7658C7.24267 71.7114 7.08878 71.6571 6.93488 71.6571C6.78099 71.6571 6.67839 71.7114 6.5245 71.7114C6.21671 71.8201 6.01151 71.9288 5.85762 72.0918C5.70372 72.2548 5.60113 72.3635 5.49853 72.5265C5.44723 72.6895 5.39594 72.9611 5.44723 73.2872C5.49853 73.6132 5.54983 73.9392 5.65243 74.2652C5.70372 74.5369 5.85762 75.0259 6.06281 75.6236L8.88421 85.2409C8.98681 85.6212 9.08941 85.8929 9.192 86.1646C9.2946 86.3819 9.4485 86.6536 9.60239 86.9253C9.75629 87.197 9.96148 87.36 10.218 87.4686C10.4745 87.5773 10.731 87.523 11.0387 87.4143C11.5517 87.2513 11.8595 86.9253 11.9108 86.4363C11.9621 85.9473 11.8595 85.2409 11.5517 84.2629L10.731 81.3831L9.3459 81.8178L8.06344 77.5253L14.3731 75.4606L18.6309 89.9681L16.6303 90.6201Z" fill="#0066D0"/>
<path d="M19.2467 82.5241L13.8604 64.2131L18.9389 62.5288L24.1713 80.3507C24.1713 80.3507 24.1713 80.405 24.2226 80.4594C24.3252 80.731 24.3765 80.9484 24.4278 81.1114C24.4791 81.2744 24.5817 81.4917 24.6843 81.7091C24.7869 81.9807 24.9408 82.1437 25.0434 82.3068C25.1973 82.4154 25.3512 82.5241 25.5564 82.5784C25.7615 82.6328 25.9667 82.6328 26.2232 82.5784C26.4284 82.5241 26.5823 82.4154 26.7362 82.3068C26.8901 82.1981 26.9414 82.0351 26.9927 81.8721C27.044 81.7091 27.044 81.5461 27.0953 81.3831C27.0953 81.2201 27.0953 81.0027 27.044 80.7854C26.9927 80.568 26.9414 80.3507 26.9414 80.242C26.8901 80.1333 26.8388 79.916 26.7875 79.6987C26.7875 79.6443 26.7362 79.59 26.7362 79.59L21.5038 61.7681L26.5823 60.0837L31.9686 78.3946C32.6355 80.6224 32.6355 82.5241 31.9173 84.0455C31.2505 85.5669 29.8141 86.6536 27.6596 87.3599C25.4538 88.0663 23.7096 88.0663 22.3246 87.1969C20.9395 86.3276 19.9135 84.7518 19.2467 82.5241Z" fill="#0066D0"/>
<path d="M39.1501 55.8999L49.0506 79.9704L44.0234 81.6004L42.5358 77.96L39.9195 78.8293L40.689 82.6871L35.6105 84.3715L30.9937 58.5623L39.1501 55.8999ZM36.6365 61.8768L36.1748 62.0398L38.9962 74.2108L40.8429 73.6132L36.6365 61.8768Z" fill="#0066D0"/>
<path d="M52.8465 66.2778L56.1809 77.6339L50.8971 79.3726L43.6128 54.4328L51.6153 51.8247C52.4361 51.553 53.1543 51.4444 53.8211 51.4987C54.488 51.553 55.001 51.716 55.4627 51.9877C55.9244 52.2594 56.3348 52.6941 56.6938 53.2374C57.0529 53.7808 57.3607 54.3785 57.6172 55.0305C57.8737 55.6282 58.1302 56.3889 58.3867 57.3126C58.5406 57.8016 58.6432 58.1819 58.6945 58.4536C58.7458 58.7796 58.7971 59.1599 58.8484 59.649C58.8997 60.138 58.8484 60.5727 58.7971 60.8987C58.6945 61.279 58.5406 61.6594 58.2841 62.0397C58.0276 62.4201 57.6685 62.8004 57.2581 63.1264C57.7711 63.0721 58.2328 63.1264 58.5919 63.2351C59.0023 63.3981 59.3101 63.6154 59.5665 63.9414C59.823 64.2674 60.0282 64.5935 60.1308 64.8651C60.2847 65.1911 60.3873 65.5172 60.5412 65.8975C61.7724 70.027 62.6444 73.1784 63.2087 75.2975L58.1302 76.9819L55.3088 67.2559C55.2062 66.8755 55.0523 66.5495 54.9497 66.3865C54.7958 66.1692 54.6419 66.0605 54.3854 66.0062C54.1289 65.9518 53.9237 65.9518 53.7698 66.0062C53.5134 66.0605 53.2569 66.1692 52.8465 66.2778ZM50.2816 57.3126L51.6666 61.9854L52.9491 61.5507C53.6159 61.3334 53.7698 60.464 53.3082 58.9426C53.0004 57.9102 52.6926 57.3125 52.3335 57.1495C51.9744 56.9322 51.4101 56.9865 50.5381 57.2582L50.2816 57.3126Z" fill="#0066D0"/>
<path d="M68.4411 46.2825L78.3417 70.353L73.3144 71.9831L71.8268 68.3426L69.2106 69.212L69.98 73.0698L64.9015 74.7542L60.2847 48.945L68.4411 46.2825ZM65.9275 52.2594L65.4658 52.4224L68.2872 64.5935L70.1339 63.9958L65.9275 52.2594Z" fill="#0066D0"/>
<path d="M85.7288 40.6318L93.0132 65.5716L87.9347 67.256L81.6763 55.6283L85.3184 68.1253L80.2399 69.8097L72.9556 44.8699L78.2906 43.1312L84.1899 54.2699L80.7016 42.3705L85.7288 40.6318Z" fill="#0066D0"/>
<path d="M87.6265 39.9797L99.0147 36.2306L100.4 41.0121L97.3218 42.0445L103.221 62.1485L98.04 63.8328L92.1407 43.7288L89.0628 44.7612L87.6265 39.9797Z" fill="#0066D0"/>
<path d="M108.197 60.5727L100.913 35.6329L111.326 32.2098L112.762 37.0456L107.633 38.73L109.069 43.6202L113.994 41.9901L115.379 46.6629L110.454 48.293L112.096 53.9982L117.482 52.1508L118.918 57.0409L108.197 60.5727Z" fill="#0066D0"/>
<path d="M121.227 56.2802L113.943 31.3404L124.356 27.9173L125.793 32.7531L120.663 34.4375L122.099 39.3277L127.024 37.6976L128.409 42.3704L123.484 44.0005L125.126 49.7057L130.564 47.9126L132 52.8028L121.227 56.2802Z" fill="#0066D0"/>
<path d="M59.464 35.0357L61.362 37.2091L64.0809 36.7201L62.7471 39.2738L64.0296 41.8819L61.3107 41.2842L59.3614 43.4033L59.0536 40.4692L56.5913 39.1652L59.1049 37.9698L59.464 35.0357Z" fill="#0066D0"/>
<path d="M67.7233 34.3289L69.0571 35.8502L71.0064 35.5242L70.0317 37.3173L70.9551 39.1647L69.0571 38.7843L67.672 40.2514L67.4155 38.1867L65.6714 37.263L67.4668 36.3936L67.7233 34.3289Z" fill="#0066D0"/>
<path d="M52.2824 39.4363L53.6162 40.9577L55.5655 40.5773L54.5908 42.4247L55.5142 44.2178L53.6162 43.8374L52.2311 45.3045L51.9746 43.2397L50.2305 42.316L52.0259 41.4467L52.2824 39.4363Z" fill="#0066D0"/>
<path d="M74.2384 85.404L72.3404 83.2306L69.6216 83.7739L70.9553 81.2202L69.6729 78.6121L72.3917 79.1554L74.341 77.0907L74.6488 79.9705L77.1111 81.2745L74.5975 82.5242L74.2384 85.404Z" fill="#0066D0"/>
<path d="M65.9794 86.1103L64.6456 84.5889L62.6963 84.915L63.671 83.1219L62.7476 81.2745L64.6969 81.7092L66.0307 80.1878L66.2872 82.2525L68.0313 83.1762L66.2359 84.0456L65.9794 86.1103Z" fill="#0066D0"/>
<path d="M81.4203 81.0571L80.0865 79.5357L78.1372 79.8617L79.1119 78.0687L78.1885 76.2213L80.1378 76.6016L81.4716 75.1346L81.7281 77.1993L83.4722 78.123L81.6768 78.9924L81.4203 81.0571Z" fill="#0066D0"/>
</svg>
