<svg width="332" height="224" viewBox="0 0 332 224" fill="none" xmlns="http://www.w3.org/2000/svg">
<path d="M193.616 386.047C299.995 386.047 386.232 299.851 386.232 193.523C386.232 87.1957 299.995 1 193.616 1C87.237 1 1 87.1957 1 193.523C1 299.851 87.237 386.047 193.616 386.047Z" stroke="#255CB0" stroke-width="1.655" stroke-miterlimit="10"/>
<path d="M193.617 346.877C278.352 346.877 347.044 278.218 347.044 193.524C347.044 108.829 278.352 40.1699 193.617 40.1699C108.881 40.1699 40.1895 108.829 40.1895 193.524C40.1895 278.218 108.881 346.877 193.617 346.877Z" stroke="#255CB0" stroke-width="1.655" stroke-miterlimit="10"/>
<path d="M193.615 307.678C256.691 307.678 307.824 256.569 307.824 193.523C307.824 130.478 256.691 79.3689 193.615 79.3689C130.539 79.3689 79.406 130.478 79.406 193.523C79.406 256.569 130.539 307.678 193.615 307.678Z" stroke="#255CB0" stroke-width="1.655" stroke-miterlimit="10"/>
<path d="M250.641 242.184C277.527 210.677 273.768 163.351 242.246 136.478C210.724 109.605 163.375 113.362 136.49 144.869C109.604 176.376 113.362 223.702 144.884 250.575C176.406 277.447 223.755 273.691 250.641 242.184Z" stroke="#255CB0" stroke-width="1.655" stroke-miterlimit="10"/>
<path d="M218.919 218.827C232.9 204.852 232.9 182.195 218.919 168.22C204.937 154.245 182.268 154.245 168.287 168.22C154.305 182.194 154.305 204.852 168.287 218.827C182.268 232.802 204.937 232.802 218.919 218.827Z" stroke="#255CB0" stroke-width="1.655" stroke-miterlimit="10"/>
</svg>
