<svg width="95" height="36" viewBox="0 0 95 36" fill="none" xmlns="http://www.w3.org/2000/svg">
<path d="M94.4675 31.6302C91.4005 25.5905 89.4349 19.3071 87.1029 12.9857C86.4967 11.3358 84.2223 12.3039 84.3518 13.8356C84.5638 16.4312 85.0585 19.0163 85.7563 21.5606C80.829 16.8542 74.7456 12.8797 69.1486 9.78142C61.6429 5.62903 53.3667 2.62985 44.9202 1.10078C30.9158 -1.43341 11.2876 0.650706 1.1597 11.9052C0.5804 12.5528 1.50089 13.4321 2.18496 13.1283C9.13048 10.0995 15.2727 6.79462 22.9098 5.6463C30.3861 4.52494 38.306 4.83373 45.6743 6.5439C53.4621 8.35551 60.608 11.8599 67.2728 16.2319C72.8439 19.8914 77.5176 24.4112 82.4902 28.6696C77.8136 28.5226 73.0822 29.1985 69.1492 31.007C66.837 32.0717 67.9602 35.5867 70.4512 35.2246C74.2323 34.6765 77.7843 33.6621 81.6548 33.6325C85.2437 33.6017 88.6851 34.1801 92.1935 34.8642C93.8778 35.2001 95.198 33.068 94.4675 31.6302Z" fill="#255CB0"/>
</svg>
