<svg width="95" height="36" viewBox="0 0 95 36" fill="none" xmlns="http://www.w3.org/2000/svg">
<path d="M94.4675 3.85028C91.4005 9.89001 89.4349 16.1734 87.1029 22.4948C86.4967 24.1447 84.2223 23.1765 84.3518 21.6448C84.5638 19.0493 85.0585 16.4642 85.7563 13.9199C80.829 18.6263 74.7456 22.6008 69.1486 25.6991C61.6429 29.8514 53.3667 32.8506 44.9202 34.3797C30.9158 36.9139 11.2876 34.8298 1.1597 23.5752C0.5804 22.9276 1.50089 22.0484 2.18496 22.3522C9.13048 25.381 15.2727 28.6858 22.9098 29.8342C30.3861 30.9555 38.306 30.6467 45.6743 28.9366C53.4621 27.125 60.608 23.6205 67.2728 19.2486C72.8439 15.5891 77.5176 11.0693 82.4902 6.81087C77.8136 6.95783 73.0822 6.28195 69.1492 4.47342C66.837 3.40878 67.9602 -0.106239 70.4512 0.2559C74.2323 0.804007 77.7843 1.81837 81.6548 1.84793C85.2437 1.87877 88.6851 1.30036 92.1935 0.616272C93.8778 0.280374 95.198 2.41251 94.4675 3.85028Z" fill="#255CB0"/>
</svg>
