<svg width="149" height="311" viewBox="0 0 149 311" fill="none" xmlns="http://www.w3.org/2000/svg">
<path d="M10.6704 174.709C10.6704 177.658 8.284 180.044 5.3352 180.044C2.3864 180.044 0 177.658 0 174.709C0 171.76 2.3864 169.374 5.3352 169.374C8.2688 169.358 10.6704 171.76 10.6704 174.709Z" fill="#255CB0"/>
<path d="M56.544 174.709C56.544 177.658 54.1576 180.044 51.2088 180.044C48.26 180.044 45.8736 177.658 45.8736 174.709C45.8736 171.76 48.26 169.374 51.2088 169.374C54.1576 169.374 56.544 171.76 56.544 174.709Z" fill="#255CB0"/>
<path d="M102.433 174.709C102.433 177.658 100.046 180.044 97.0976 180.044C94.1488 180.044 91.7624 177.658 91.7624 174.709C91.7624 171.76 94.1488 169.374 97.0976 169.374C100.046 169.374 102.433 171.76 102.433 174.709Z" fill="#255CB0"/>
<path d="M148.306 174.709C148.306 177.658 145.92 180.044 142.971 180.044C140.022 180.044 137.636 177.658 137.636 174.709C137.636 171.76 140.022 169.374 142.971 169.374C145.92 169.358 148.306 171.76 148.306 174.709Z" fill="#255CB0"/>
<path d="M10.6704 218.211C10.6704 221.16 8.284 223.546 5.3352 223.546C2.3864 223.546 0 221.16 0 218.211C0 215.262 2.3864 212.876 5.3352 212.876C8.2688 212.876 10.6704 215.262 10.6704 218.211Z" fill="#255CB0"/>
<path d="M56.544 218.211C56.544 221.16 54.1576 223.546 51.2088 223.546C48.26 223.546 45.8736 221.16 45.8736 218.211C45.8736 215.262 48.26 212.876 51.2088 212.876C54.1576 212.876 56.544 215.262 56.544 218.211Z" fill="#255CB0"/>
<path d="M102.433 218.211C102.433 221.16 100.046 223.546 97.0976 223.546C94.1488 223.546 91.7624 221.16 91.7624 218.211C91.7624 215.262 94.1488 212.876 97.0976 212.876C100.046 212.876 102.433 215.262 102.433 218.211Z" fill="#255CB0"/>
<path d="M148.306 218.211C148.306 221.16 145.92 223.546 142.971 223.546C140.022 223.546 137.636 221.16 137.636 218.211C137.636 215.262 140.022 212.876 142.971 212.876C145.92 212.876 148.306 215.262 148.306 218.211Z" fill="#255CB0"/>
<path d="M10.6704 261.729C10.6704 264.678 8.284 267.064 5.3352 267.064C2.3864 267.064 0 264.678 0 261.729C0 258.78 2.3864 256.394 5.3352 256.394C8.2688 256.394 10.6704 258.78 10.6704 261.729Z" fill="#255CB0"/>
<path d="M56.544 261.729C56.544 264.678 54.1576 267.064 51.2088 267.064C48.26 267.064 45.8736 264.678 45.8736 261.729C45.8736 258.78 48.26 256.394 51.2088 256.394C54.1576 256.394 56.544 258.78 56.544 261.729Z" fill="#255CB0"/>
<path d="M102.433 261.729C102.433 264.678 100.046 267.064 97.0976 267.064C94.1488 267.064 91.7624 264.678 91.7624 261.729C91.7624 258.78 94.1488 256.394 97.0976 256.394C100.046 256.394 102.433 258.78 102.433 261.729Z" fill="#255CB0"/>
<path d="M148.306 261.729C148.306 264.678 145.92 267.064 142.971 267.064C140.022 267.064 137.636 264.678 137.636 261.729C137.636 258.78 140.022 256.394 142.971 256.394C145.92 256.394 148.306 258.78 148.306 261.729Z" fill="#255CB0"/>
<path d="M10.6704 305.246C10.6704 308.195 8.284 310.582 5.3352 310.582C2.3864 310.582 0 308.195 0 305.246C0 302.298 2.3864 299.911 5.3352 299.911C8.2688 299.896 10.6704 302.298 10.6704 305.246Z" fill="#255CB0"/>
<path d="M56.544 305.246C56.544 308.195 54.1576 310.582 51.2088 310.582C48.26 310.582 45.8736 308.195 45.8736 305.246C45.8736 302.298 48.26 299.911 51.2088 299.911C54.1576 299.911 56.544 302.298 56.544 305.246Z" fill="#255CB0"/>
<path d="M102.433 305.246C102.433 308.195 100.046 310.582 97.0976 310.582C94.1488 310.582 91.7624 308.195 91.7624 305.246C91.7624 302.298 94.1488 299.911 97.0976 299.911C100.046 299.911 102.433 302.298 102.433 305.246Z" fill="#255CB0"/>
<path d="M148.306 305.246C148.306 308.195 145.92 310.582 142.971 310.582C140.022 310.582 137.636 308.195 137.636 305.246C137.636 302.298 140.022 299.911 142.971 299.911C145.92 299.896 148.306 302.298 148.306 305.246Z" fill="#255CB0"/>
<path d="M10.6704 5.3352C10.6704 8.284 8.284 10.6704 5.3352 10.6704C2.3864 10.6704 3.66211e-06 8.284 3.66211e-06 5.3352C3.66211e-06 2.3864 2.3864 0 5.3352 0C8.2688 0 10.6704 2.3864 10.6704 5.3352Z" fill="#255CB0"/>
<path d="M56.544 5.3352C56.544 8.284 54.1576 10.6704 51.2088 10.6704C48.26 10.6704 45.8736 8.284 45.8736 5.3352C45.8736 2.3864 48.26 0 51.2088 0C54.1576 0 56.544 2.3864 56.544 5.3352Z" fill="#255CB0"/>
<path d="M102.433 5.3352C102.433 8.284 100.046 10.6704 97.0976 10.6704C94.1488 10.6704 91.7624 8.284 91.7624 5.3352C91.7624 2.3864 94.1488 0 97.0976 0C100.046 0 102.433 2.3864 102.433 5.3352Z" fill="#255CB0"/>
<path d="M148.306 5.3352C148.306 8.284 145.92 10.6704 142.971 10.6704C140.022 10.6704 137.636 8.284 137.636 5.3352C137.636 2.3864 140.022 0 142.971 0C145.92 0 148.306 2.3864 148.306 5.3352Z" fill="#255CB0"/>
<path d="M10.6704 48.8528C10.6704 51.8016 8.284 54.188 5.3352 54.188C2.3864 54.188 0 51.8016 0 48.8528C0 45.904 2.3864 43.5176 5.3352 43.5176C8.2688 43.5024 10.6704 45.904 10.6704 48.8528Z" fill="#255CB0"/>
<path d="M56.544 48.8528C56.544 51.8016 54.1576 54.188 51.2088 54.188C48.26 54.188 45.8736 51.8016 45.8736 48.8528C45.8736 45.904 48.26 43.5176 51.2088 43.5176C54.1576 43.5176 56.544 45.904 56.544 48.8528Z" fill="#255CB0"/>
<path d="M102.433 48.8528C102.433 51.8016 100.046 54.188 97.0976 54.188C94.1488 54.188 91.7624 51.8016 91.7624 48.8528C91.7624 45.904 94.1488 43.5176 97.0976 43.5176C100.046 43.5176 102.433 45.904 102.433 48.8528Z" fill="#255CB0"/>
<path d="M148.306 48.8528C148.306 51.8016 145.92 54.188 142.971 54.188C140.022 54.188 137.636 51.8016 137.636 48.8528C137.636 45.904 140.022 43.5176 142.971 43.5176C145.92 43.5024 148.306 45.904 148.306 48.8528Z" fill="#255CB0"/>
<path d="M10.6704 92.3552C10.6704 95.304 8.284 97.6904 5.3352 97.6904C2.3864 97.6904 0 95.304 0 92.3552C0 89.4064 2.3864 87.02 5.3352 87.02C8.2688 87.02 10.6704 89.4064 10.6704 92.3552Z" fill="#255CB0"/>
<path d="M56.544 92.3552C56.544 95.304 54.1576 97.6904 51.2088 97.6904C48.26 97.6904 45.8736 95.304 45.8736 92.3552C45.8736 89.4064 48.26 87.02 51.2088 87.02C54.1576 87.02 56.544 89.4064 56.544 92.3552Z" fill="#255CB0"/>
<path d="M102.433 92.3552C102.433 95.304 100.046 97.6904 97.0976 97.6904C94.1488 97.6904 91.7472 95.304 91.7472 92.3552C91.7472 89.4064 94.1336 87.02 97.0824 87.02C100.031 87.02 102.433 89.4064 102.433 92.3552Z" fill="#255CB0"/>
<path d="M148.306 92.3552C148.306 95.304 145.92 97.6904 142.971 97.6904C140.022 97.6904 137.636 95.304 137.636 92.3552C137.636 89.4064 140.022 87.02 142.971 87.02C145.92 87.02 148.306 89.4064 148.306 92.3552Z" fill="#255CB0"/>
<path d="M10.6704 135.873C10.6704 138.822 8.284 141.208 5.3352 141.208C2.3864 141.208 0 138.822 0 135.873C0 132.924 2.3864 130.538 5.3352 130.538C8.2688 130.538 10.6704 132.924 10.6704 135.873Z" fill="#255CB0"/>
<path d="M56.544 135.873C56.544 138.822 54.1576 141.208 51.2088 141.208C48.26 141.208 45.8736 138.822 45.8736 135.873C45.8736 132.924 48.26 130.538 51.2088 130.538C54.1576 130.538 56.544 132.924 56.544 135.873Z" fill="#255CB0"/>
<path d="M102.433 135.873C102.433 138.822 100.046 141.208 97.0976 141.208C94.1488 141.208 91.7624 138.822 91.7624 135.873C91.7624 132.924 94.1488 130.538 97.0976 130.538C100.046 130.538 102.433 132.924 102.433 135.873Z" fill="#255CB0"/>
<path d="M148.306 135.873C148.306 138.822 145.92 141.208 142.971 141.208C140.022 141.208 137.636 138.822 137.636 135.873C137.636 132.924 140.022 130.538 142.971 130.538C145.92 130.538 148.306 132.924 148.306 135.873Z" fill="#255CB0"/>
</svg>
