<svg width="29" height="25" viewBox="0 0 29 25" fill="none" xmlns="http://www.w3.org/2000/svg">
<path d="M9.42407 17.659C9.42407 17.659 12.4769 20.3365 17.4675 19.8135C22.4582 19.2905 24.6349 16.5258 23.958 15.7287C23.2811 14.9317 19.777 15.7287 19.777 15.7287C19.777 15.7287 12.7291 18.7799 9.42407 17.659Z" fill="url(#paint0_linear_1158_3435)"/>
<path d="M21.0908 13.9354C21.0908 13.9354 19.5379 16.5755 17.2018 18.0326C17.1886 18.0451 17.162 18.0575 17.1355 18.07C14.733 19.5519 11.6006 19.3527 9.42384 17.6715C10.645 17.2107 11.7599 16.4759 11.8395 16.4261C10.9901 16.7997 10.0079 17.0737 9.43711 17.1982C9.14511 17.2605 8.8531 17.1733 8.65401 16.9865L8.14963 16.5133C10.1406 15.4298 12.1846 13.8856 12.3174 13.7984C10.8839 14.6203 9.18493 15.4049 8.20272 15.8532C7.89744 15.9902 7.5258 15.928 7.27361 15.7038L6.0525 14.5581C8.76019 13.2256 11.0564 11.507 11.1892 11.3949C9.53003 12.4036 7.16743 13.3501 5.97286 13.7984C5.66758 13.9105 5.32248 13.8482 5.09684 13.6241L3.62354 12.2417C3.62354 12.2417 6.15868 11.3326 9.0522 9.97518C11.8661 8.65511 14.003 7.27277 14.003 7.27277L21.0908 13.9354Z" fill="#0066D0"/>
<path d="M20.2415 13.1384C18.1709 16.5881 14.189 19.4025 9.90186 17.9953C12.0521 19.3652 14.9058 19.4399 17.1356 18.07C17.1622 18.0576 17.1755 18.0451 17.202 18.0327C19.5381 16.5756 21.091 13.9355 21.091 13.9355L20.2415 13.1384Z" fill="#4992DD"/>
<path d="M26.6521 2.56543L26.0548 2.00502C25.5903 1.56915 24.8204 1.59406 24.3957 2.06729L19.2723 7.78346C18.7281 7.59665 18.1043 7.64647 17.5866 7.92045L16.193 6.60037C15.8877 6.31394 15.463 6.20186 15.0515 6.30149C14.5604 6.41357 14.3878 6.98643 14.7462 7.32268L20.9713 13.1634C21.3296 13.4996 21.9402 13.3377 22.0596 12.8769C22.1658 12.4909 22.0464 12.0799 21.7411 11.8059L20.3474 10.4983C20.6394 10.0126 20.6925 9.43978 20.4934 8.91673L26.5857 4.10967C27.0901 3.71116 27.1299 3.0013 26.6521 2.56543Z" fill="#006EE0"/>
<path d="M22.0994 12.603C22.0994 12.6902 22.0861 12.7898 22.0596 12.877C21.9401 13.3377 21.3295 13.4996 20.9712 13.1634L20.6128 12.8272C20.9712 13.1634 21.5817 13.0015 21.7012 12.5407C21.7277 12.4535 21.741 12.3539 21.741 12.2667C21.741 11.9928 21.6348 11.7188 21.4357 11.5071L21.7543 11.806C21.9799 12.0301 22.0994 12.3166 22.0994 12.603Z" fill="url(#paint1_linear_1158_3435)"/>
<path d="M26.5862 4.10961L20.4939 8.91667C20.693 9.42726 20.6399 10.0126 20.3479 10.4983L19.9895 10.162C20.2815 9.67633 20.3346 9.10347 20.1355 8.58042L26.2278 3.77336C26.7322 3.37485 26.772 2.665 26.3075 2.22913L26.6526 2.56537C27.1304 3.00124 27.0906 3.7111 26.5862 4.10961Z" fill="#6ABAFF"/>
<path d="M8.20289 4.64504L8.37544 5.14318C8.38871 5.18054 8.41526 5.20544 8.45508 5.2179L8.986 5.37979C9.09218 5.41715 9.09218 5.55414 8.986 5.5915L8.45508 5.7534C8.41526 5.76585 8.38871 5.79076 8.37544 5.82812L8.20289 6.32626C8.16307 6.42589 8.01707 6.42589 7.97725 6.32626L7.8047 5.82812C7.79143 5.79076 7.76488 5.76585 7.72506 5.7534L7.19414 5.5915C7.08796 5.55414 7.08796 5.41715 7.19414 5.37979L7.72506 5.2179C7.76488 5.20544 7.79143 5.18054 7.8047 5.14318L7.97725 4.64504C8.01707 4.53295 8.17634 4.53295 8.20289 4.64504Z" fill="#6ABAFF"/>
<path d="M19.955 18.6501L20.1767 19.3058C20.1968 19.3433 20.2371 19.3807 20.2774 19.3995L20.9829 19.6055C21.124 19.643 21.124 19.8303 20.9829 19.8678L20.2774 20.0739C20.2371 20.0926 20.1968 20.1301 20.1767 20.1676L19.955 20.8232C19.9146 20.9544 19.7131 20.9544 19.6728 20.8232L19.4511 20.1676C19.4309 20.1301 19.3906 20.0926 19.3503 20.0739L18.6449 19.8678C18.5038 19.8303 18.5038 19.643 18.6449 19.6055L19.3503 19.3995C19.3906 19.3807 19.4309 19.3433 19.4511 19.3058L19.6728 18.6501C19.7131 18.519 19.8945 18.519 19.955 18.6501Z" fill="#6ABAFF"/>
<path d="M11.481 3.49928L11.6004 3.84798C11.6137 3.87288 11.627 3.88534 11.6535 3.89779L12.0252 4.00987C12.1048 4.03478 12.1048 4.13441 12.0252 4.15932L11.6535 4.2714C11.627 4.28385 11.6137 4.2963 11.6004 4.32121L11.481 4.66991C11.4544 4.74463 11.3482 4.74463 11.3217 4.66991L11.2022 4.32121C11.189 4.2963 11.1757 4.28385 11.1491 4.2714L10.7775 4.15932C10.6979 4.13441 10.6979 4.03478 10.7775 4.00987L11.1491 3.89779C11.1757 3.88534 11.189 3.87288 11.2022 3.84798L11.3217 3.49928C11.3482 3.42456 11.4544 3.42456 11.481 3.49928Z" fill="#6ABAFF"/>
<path d="M17.4465 20.1016L17.5864 20.4917C17.6039 20.5242 17.6214 20.5404 17.6389 20.5404L18.0585 20.6704C18.1459 20.7029 18.1459 20.8004 18.0585 20.8329L17.6389 20.9629C17.6039 20.9792 17.5864 20.9954 17.5864 21.0117L17.4465 21.4017C17.4116 21.4829 17.3067 21.4829 17.2717 21.4017L17.1318 21.0117C17.1144 20.9792 17.0969 20.9629 17.0794 20.9629L16.6598 20.8329C16.5724 20.8004 16.5724 20.7029 16.6598 20.6704L17.0794 20.5404C17.1144 20.5242 17.1318 20.5079 17.1318 20.4917L17.2717 20.1016C17.2892 20.0204 17.4116 20.0204 17.4465 20.1016Z" fill="#6ABAFF"/>
<path d="M10.1668 6.28901L10.2597 6.57544C10.2597 6.60035 10.2863 6.6128 10.2995 6.6128L10.6048 6.69998C10.6712 6.71243 10.6712 6.7996 10.6048 6.81206L10.2995 6.89923C10.273 6.89923 10.2597 6.92414 10.2597 6.93659L10.1668 7.22302C10.1535 7.28529 10.0606 7.28529 10.0474 7.22302L9.95444 6.93659C9.95444 6.91169 9.9279 6.89923 9.91462 6.89923L9.60934 6.81206C9.54298 6.7996 9.54298 6.71243 9.60934 6.69998L9.91462 6.6128C9.94117 6.6128 9.95444 6.58789 9.95444 6.57544L10.0474 6.28901C10.0606 6.22674 10.1403 6.22674 10.1668 6.28901Z" fill="#6ABAFF"/>
<path d="M15.1312 8.33132C15.1312 8.33132 8.57437 12.0798 5.57467 12.7772C4.75174 12.964 3.62354 12.2417 3.62354 12.2417C3.62354 12.2417 6.15868 11.3326 9.0522 9.97518C11.8661 8.65511 14.003 7.27277 14.003 7.27277L15.1312 8.33132Z" fill="url(#paint2_linear_1158_3435)"/>
<path d="M15.6894 10.4235C14.2427 11.6191 8.92019 14.8819 7.67253 15.0687C7.12834 15.1434 6.05322 14.5332 6.05322 14.5332C8.76092 13.2256 11.0571 11.4945 11.1899 11.3949C13.2472 9.87558 14.2029 9.07855 14.2029 9.07855L15.6894 10.4235Z" fill="url(#paint3_linear_1158_3435)"/>
<path d="M21.0503 13.2256C21.0238 13.2131 20.9972 13.1882 20.9707 13.1633L14.7456 7.3226C14.6129 7.19807 14.5598 7.04863 14.5598 6.88673C14.5598 6.62521 14.7456 6.36368 15.0509 6.28896C15.4624 6.18933 15.9004 6.30141 16.1924 6.58785L16.4977 6.87428C16.2057 6.65011 15.8208 6.57539 15.4491 6.66257C15.1438 6.73729 14.958 6.99881 14.958 7.26034C14.958 7.40978 15.0244 7.57167 15.1438 7.68376L21.0503 13.2256Z" fill="url(#paint4_linear_1158_3435)"/>
<path d="M26.3603 2.29134C25.8957 1.94265 25.1923 1.99246 24.7941 2.44079L19.6707 8.15695C19.1265 7.97015 18.5027 8.01997 17.9983 8.29394L17.6001 7.92034C18.1177 7.64636 18.7283 7.609 19.2725 7.78335L24.3959 2.06718C24.8206 1.59395 25.5904 1.55659 26.055 2.00491L26.3603 2.29134Z" fill="url(#paint5_radial_1158_3435)"/>
<path d="M12.8881 0C13.273 0 13.6579 0.0124535 14.0296 0.0498141C7.44616 0.585316 2.28296 5.77843 2.28296 12.0924C2.28296 18.4063 7.44616 23.587 14.0296 24.1349C13.6579 24.1723 13.273 24.1847 12.8881 24.1847C5.77376 24.1723 0 18.7675 0 12.0924C0 5.41728 5.77376 0 12.8881 0Z" fill="#008080"/>
<path d="M14.0296 24.1349C13.6579 24.1723 13.273 24.1847 12.8881 24.1847C5.77376 24.1723 0 18.7675 0 12.0924C0 11.8807 0.013273 11.669 0.013273 11.4448C0.26546 16.0277 3.23861 19.9256 7.43289 21.7688C9.30438 23.0764 11.5608 23.9232 14.0296 24.1349Z" fill="#008080"/>
<path d="M14.0296 0.0497531C14.4013 0.0123925 14.7862 -6.10352e-05 15.1711 -6.10352e-05C18.2106 -6.10352e-05 20.9979 0.983767 23.2013 2.64009L22.2058 3.74845C20.1087 1.68116 17.2284 0.311277 14.0296 0.0497531Z" fill="#0066D0"/>
<path d="M28.0459 12.0923C28.0459 18.7674 22.2722 24.1847 15.1578 24.1847C14.7729 24.1847 14.388 24.1722 14.0164 24.1349C20.5998 23.5994 25.763 18.4062 25.763 12.0923C25.763 10.0873 25.2453 8.2068 24.3295 6.55048L25.8426 5.35494C27.2363 7.27279 28.0459 9.58914 28.0459 12.0923Z" fill="#0066D0"/>
<path d="M25.8559 5.3425L24.3427 6.53804C24.5949 6.99882 24.8206 7.47206 25.0064 7.95774L26.785 6.84938C26.5062 6.32633 26.201 5.81574 25.8559 5.3425Z" fill="#0066D0"/>
<path d="M28.0459 12.0923C28.0459 18.7674 22.2722 24.1847 15.1578 24.1847C14.7729 24.1847 14.388 24.1722 14.0164 24.1349C16.4719 23.9356 18.7415 23.0888 20.5998 21.7687C24.794 19.9256 27.7672 16.0276 28.0194 11.4447C28.0459 11.6564 28.0459 11.8681 28.0459 12.0923Z" fill="#0066D0"/>
<defs>
<linearGradient id="paint0_linear_1158_3435" x1="24.5253" y1="17.8684" x2="8.65989" y2="17.0199" gradientUnits="userSpaceOnUse">
<stop stop-color="white" stop-opacity="0"/>
<stop offset="0.2451" stop-color="#F1F1F1" stop-opacity="0.2451"/>
<stop offset="0.7032" stop-color="#CECECE" stop-opacity="0.7032"/>
<stop offset="1" stop-color="#B3B3B3"/>
</linearGradient>
<linearGradient id="paint1_linear_1158_3435" x1="20.9238" y1="12.1523" x2="22.0232" y2="13.0161" gradientUnits="userSpaceOnUse">
<stop stop-color="#6ABAFF" stop-opacity="0"/>
<stop offset="0.1699" stop-color="#6DACFF" stop-opacity="0.1699"/>
<stop offset="0.4891" stop-color="#7788FF" stop-opacity="0.4891"/>
<stop offset="0.9201" stop-color="#854FFF" stop-opacity="0.9201"/>
<stop offset="1" stop-color="#8843FF"/>
</linearGradient>
<linearGradient id="paint2_linear_1158_3435" x1="12.552" y1="11.0151" x2="-0.128724" y2="6.47019" gradientUnits="userSpaceOnUse">
<stop stop-color="white" stop-opacity="0"/>
<stop offset="1" stop-color="white"/>
</linearGradient>
<linearGradient id="paint3_linear_1158_3435" x1="12.5002" y1="12.1792" x2="0.476781" y2="11.3007" gradientUnits="userSpaceOnUse">
<stop stop-color="white" stop-opacity="0"/>
<stop offset="1" stop-color="white"/>
</linearGradient>
<linearGradient id="paint4_linear_1158_3435" x1="14.744" y1="5.9812" x2="16.6511" y2="8.76565" gradientUnits="userSpaceOnUse">
<stop stop-color="white" stop-opacity="0"/>
<stop offset="1" stop-color="white"/>
</linearGradient>
<radialGradient id="paint5_radial_1158_3435" cx="0" cy="0" r="1" gradientUnits="userSpaceOnUse" gradientTransform="translate(19.2672 3.43493) scale(6.93675 6.50847)">
<stop stop-color="white"/>
<stop offset="1" stop-color="white" stop-opacity="0"/>
</radialGradient>
</defs>
</svg>
