<svg width="320" height="252" viewBox="0 0 320 252" fill="none" xmlns="http://www.w3.org/2000/svg">
<path d="M20.9756 12.6257L80.6614 -47.0601C70.065 -41.005 60.2255 -33.7605 51.3231 -25.5429L42.4928 -16.7126C34.2391 -7.81017 27.0307 2.02927 20.9756 12.6257Z" fill="#13448A"/>
<path d="M3.13716 60.0579L128.059 -64.8641C124.599 -64.1793 121.211 -63.3503 117.823 -62.4492L5.55203 49.822C4.65098 53.1739 3.858 56.5979 3.13716 60.0579Z" fill="#13448A"/>
<path d="M0 91.8108C0 92.1352 0 92.4956 0 92.82L160.82 -68C160.496 -68 160.135 -68 159.811 -68C157.504 -68 155.161 -67.9279 152.891 -67.8558L0.144199 84.8908C0.0360729 87.1614 0 89.4681 0 91.8108Z" fill="#13448A"/>
<path d="M2.45315 119.959L187.962 -65.5495C185.727 -65.946 183.457 -66.3063 181.222 -66.5947L1.4079 113.219C1.73228 115.49 2.05669 117.725 2.45315 119.959Z" fill="#13448A"/>
<path d="M8.54125 143.495L211.531 -59.4943C209.584 -60.1791 207.602 -60.7919 205.62 -61.3686L6.6671 137.584C7.24378 139.566 7.89249 141.549 8.54125 143.495Z" fill="#13448A"/>
<path d="M17.3725 164.328L232.364 -50.6632C230.634 -51.5282 228.868 -52.3932 227.102 -53.2222L14.8135 159.066C15.6425 160.832 16.4715 162.598 17.3725 164.328Z" fill="#13448A"/>
<path d="M28.437 182.853L250.853 -39.563C249.303 -40.6443 247.753 -41.6895 246.168 -42.6987L25.3013 178.167C26.3465 179.753 27.3917 181.303 28.437 182.853Z" fill="#13448A"/>
<path d="M41.5923 199.324L267.36 -26.4436C265.991 -27.669 264.621 -28.8943 263.215 -30.0837L37.952 195.18C39.1414 196.585 40.3308 197.955 41.5923 199.324Z" fill="#13448A"/>
<path d="M56.6607 213.886L281.888 -11.3418C280.699 -12.7475 279.473 -14.1531 278.248 -15.5227L52.4798 210.245C53.8855 211.471 55.2551 212.696 56.6607 213.886Z" fill="#13448A"/>
<path d="M73.708 226.464L294.502 5.66978C293.493 4.08392 292.448 2.53416 291.367 0.984344L69.0226 223.328C70.5724 224.41 72.1222 225.455 73.708 226.464Z" fill="#13448A"/>
<path d="M92.8427 236.953L304.951 24.845C304.122 23.0789 303.293 21.3129 302.392 19.5829L87.5446 234.43C89.3107 235.295 91.0767 236.124 92.8427 236.953Z" fill="#13448A"/>
<path d="M114.324 245.061L313.06 46.3252C312.484 44.3429 311.835 42.3606 311.186 40.4144L108.413 243.187C110.359 243.836 112.342 244.449 114.324 245.061Z" fill="#13448A"/>
<path d="M138.761 250.252L318.251 70.7623C317.963 68.4917 317.602 66.221 317.206 63.9864L131.985 249.207C134.256 249.603 136.49 249.928 138.761 250.252Z" fill="#13448A"/>
<path d="M159.812 251.622C162.299 251.622 164.75 251.549 167.165 251.441L319.443 99.1634C319.551 96.7125 319.623 94.2616 319.623 91.8107C319.623 91.5945 319.623 91.4143 319.623 91.1981L159.199 251.622C159.416 251.622 159.632 251.622 159.812 251.622Z" fill="#13448A"/>
<path d="M202.378 245.891L313.929 134.34C314.866 130.952 315.695 127.528 316.416 124.068L192.106 248.378C195.566 247.657 198.99 246.828 202.378 245.891Z" fill="#13448A"/>
<path d="M298.106 171.968L239.97 230.104C264.046 216.12 284.121 196.045 298.106 171.968Z" fill="#13448A"/>
</svg>
