<svg width="170" height="170" viewBox="0 0 170 170" fill="none" xmlns="http://www.w3.org/2000/svg">
<rect width="170" height="170" rx="85" fill="#1E6EE7"/>
<path d="M59.28 75.4C57.0667 75.4 55.0667 74.8 53.28 73.6C51.4933 72.4 50.0667 70.7067 49 68.52C47.96 66.3333 47.44 63.7867 47.44 60.88C47.44 57.9733 47.96 55.44 49 53.28C50.04 51.12 51.44 49.44 53.2 48.24C54.9867 47.04 56.9733 46.44 59.16 46.44C61.4 46.44 63.4 47.04 65.16 48.24C66.9467 49.44 68.36 51.1333 69.4 53.32C70.44 55.48 70.96 58.0267 70.96 60.96C70.96 63.8667 70.44 66.4133 69.4 68.6C68.36 70.76 66.96 72.44 65.2 73.64C63.44 74.8133 61.4667 75.4 59.28 75.4ZM59.2 70.48C60.48 70.48 61.5867 70.12 62.52 69.4C63.4533 68.68 64.1733 67.6133 64.68 66.2C65.2133 64.7867 65.48 63.0267 65.48 60.92C65.48 58.8133 65.2133 57.0533 64.68 55.64C64.1733 54.2267 63.44 53.1733 62.48 52.48C61.5467 51.76 60.44 51.4 59.16 51.4C57.9067 51.4 56.8133 51.76 55.88 52.48C54.9467 53.1733 54.2133 54.2267 53.68 55.64C53.1733 57.0267 52.92 58.7733 52.92 60.88C52.92 63.0133 53.1733 64.7867 53.68 66.2C54.2133 67.6133 54.9467 68.68 55.88 69.4C56.8133 70.12 57.92 70.48 59.2 70.48ZM82.4062 75.4C80.4596 75.4 78.6863 75.0667 77.0863 74.4C75.4863 73.7067 74.1529 72.72 73.0863 71.44L76.6863 67.88C77.2196 68.68 77.9796 69.32 78.9663 69.8C79.9796 70.28 81.0863 70.52 82.2863 70.52C83.3796 70.52 84.3263 70.32 85.1263 69.92C85.9529 69.52 86.5929 68.96 87.0463 68.24C87.5263 67.4933 87.7663 66.6267 87.7663 65.64C87.7663 64.6 87.5263 63.72 87.0463 63C86.5929 62.28 85.9796 61.7333 85.2063 61.36C84.4329 60.9867 83.5663 60.8 82.6063 60.8C81.5929 60.8 80.6729 60.9333 79.8463 61.2C79.0463 61.44 78.2729 61.84 77.5263 62.4L77.8463 58.96C78.3529 58.4267 78.8863 58 79.4463 57.68C80.0063 57.3333 80.6329 57.08 81.3263 56.92C82.0463 56.7333 82.8863 56.64 83.8463 56.64C85.8996 56.64 87.6063 57.0667 88.9663 57.92C90.3529 58.7467 91.4063 59.8667 92.1263 61.28C92.8463 62.6667 93.2063 64.2 93.2063 65.88C93.2063 67.72 92.7529 69.36 91.8463 70.8C90.9396 72.24 89.6729 73.3733 88.0463 74.2C86.4463 75 84.5663 75.4 82.4062 75.4ZM77.5263 62.4L74.9263 59.84L76.2063 46.88H81.1263L79.6863 60.04L77.5263 62.4ZM77.0463 51.6L76.2063 46.88H91.6463V51.6H77.0463ZM96.5556 63.88V59.32H114.676V63.88H96.5556ZM103.316 52.08H107.956V71.08H103.316V52.08Z" fill="white"/>
<path d="M57.7377 98.96L52.8237 91.4H55.2177L59.0517 97.43H57.9357L61.7697 91.4H64.1277L59.1777 98.96H57.7377ZM57.4497 104V97.664H59.5197V104H57.4497ZM66.9968 104.18C66.1328 104.18 65.3528 103.988 64.6568 103.604C63.9728 103.208 63.4268 102.668 63.0188 101.984C62.6228 101.3 62.4248 100.532 62.4248 99.68C62.4248 98.828 62.6228 98.066 63.0188 97.394C63.4148 96.71 63.9488 96.17 64.6208 95.774C65.3048 95.378 66.0608 95.18 66.8888 95.18C67.6928 95.18 68.4008 95.366 69.0128 95.738C69.6368 96.11 70.1228 96.62 70.4708 97.268C70.8308 97.916 71.0108 98.654 71.0108 99.482C71.0108 99.626 70.9988 99.776 70.9748 99.932C70.9628 100.076 70.9388 100.238 70.9028 100.418H63.8108V98.798H69.8768L69.1388 99.446C69.1148 98.918 69.0128 98.474 68.8328 98.114C68.6528 97.754 68.3948 97.478 68.0588 97.286C67.7348 97.094 67.3328 96.998 66.8528 96.998C66.3488 96.998 65.9108 97.106 65.5388 97.322C65.1668 97.538 64.8788 97.844 64.6748 98.24C64.4708 98.624 64.3688 99.086 64.3688 99.626C64.3688 100.166 64.4768 100.64 64.6928 101.048C64.9088 101.456 65.2148 101.774 65.6108 102.002C66.0068 102.218 66.4628 102.326 66.9788 102.326C67.4228 102.326 67.8308 102.248 68.2028 102.092C68.5868 101.936 68.9108 101.708 69.1748 101.408L70.4348 102.686C70.0148 103.178 69.5048 103.55 68.9048 103.802C68.3048 104.054 67.6688 104.18 66.9968 104.18ZM76.216 104.18C75.436 104.18 74.728 103.982 74.092 103.586C73.468 103.19 72.97 102.656 72.598 101.984C72.238 101.3 72.058 100.538 72.058 99.698C72.058 98.846 72.238 98.084 72.598 97.412C72.97 96.728 73.468 96.188 74.092 95.792C74.728 95.384 75.436 95.18 76.216 95.18C76.876 95.18 77.458 95.324 77.962 95.612C78.478 95.888 78.886 96.272 79.186 96.764C79.486 97.256 79.636 97.814 79.636 98.438V100.922C79.636 101.546 79.486 102.104 79.186 102.596C78.898 103.088 78.496 103.478 77.98 103.766C77.464 104.042 76.876 104.18 76.216 104.18ZM76.54 102.308C77.272 102.308 77.86 102.062 78.304 101.57C78.76 101.078 78.988 100.448 78.988 99.68C78.988 99.164 78.886 98.708 78.682 98.312C78.478 97.916 78.19 97.61 77.818 97.394C77.458 97.166 77.032 97.052 76.54 97.052C76.06 97.052 75.634 97.166 75.262 97.394C74.902 97.61 74.614 97.916 74.398 98.312C74.194 98.708 74.092 99.164 74.092 99.68C74.092 100.196 74.194 100.652 74.398 101.048C74.614 101.444 74.902 101.756 75.262 101.984C75.634 102.2 76.06 102.308 76.54 102.308ZM78.862 104V101.678L79.204 99.572L78.862 97.484V95.36H80.842V104H78.862ZM83.0394 104V95.36H85.0194V104H83.0394ZM85.0194 99.194L84.3354 98.852C84.3354 97.76 84.5754 96.878 85.0554 96.206C85.5474 95.522 86.2854 95.18 87.2694 95.18C87.7014 95.18 88.0914 95.258 88.4394 95.414C88.7874 95.57 89.1114 95.822 89.4114 96.17L88.1154 97.502C87.9594 97.334 87.7854 97.214 87.5934 97.142C87.4014 97.07 87.1794 97.034 86.9274 97.034C86.3754 97.034 85.9194 97.208 85.5594 97.556C85.1994 97.904 85.0194 98.45 85.0194 99.194ZM93.0021 104.18C92.5221 104.18 92.0601 104.12 91.6161 104C91.1721 103.868 90.7641 103.688 90.3921 103.46C90.0201 103.22 89.6961 102.932 89.4201 102.596L90.6801 101.336C90.9801 101.684 91.3221 101.948 91.7061 102.128C92.1021 102.296 92.5461 102.38 93.0381 102.38C93.4821 102.38 93.8181 102.314 94.0461 102.182C94.2741 102.05 94.3881 101.858 94.3881 101.606C94.3881 101.342 94.2801 101.138 94.0641 100.994C93.8481 100.85 93.5661 100.73 93.2181 100.634C92.8821 100.526 92.5221 100.418 92.1381 100.31C91.7661 100.202 91.4061 100.058 91.0581 99.878C90.7221 99.686 90.4461 99.428 90.2301 99.104C90.0141 98.78 89.9061 98.36 89.9061 97.844C89.9061 97.292 90.0321 96.818 90.2841 96.422C90.5481 96.026 90.9141 95.72 91.3821 95.504C91.8621 95.288 92.4321 95.18 93.0921 95.18C93.7881 95.18 94.4001 95.306 94.9281 95.558C95.4681 95.798 95.9181 96.164 96.2781 96.656L95.0181 97.916C94.7661 97.604 94.4781 97.37 94.1541 97.214C93.8301 97.058 93.4581 96.98 93.0381 96.98C92.6421 96.98 92.3361 97.04 92.1201 97.16C91.9041 97.28 91.7961 97.454 91.7961 97.682C91.7961 97.922 91.9041 98.108 92.1201 98.24C92.3361 98.372 92.6121 98.486 92.9481 98.582C93.2961 98.678 93.6561 98.786 94.0281 98.906C94.4121 99.014 94.7721 99.17 95.1081 99.374C95.4561 99.566 95.7381 99.83 95.9541 100.166C96.1701 100.49 96.2781 100.916 96.2781 101.444C96.2781 102.284 95.9841 102.95 95.3961 103.442C94.8081 103.934 94.0101 104.18 93.0021 104.18ZM105.474 104.18C104.634 104.18 103.872 103.982 103.188 103.586C102.504 103.178 101.958 102.632 101.55 101.948C101.154 101.264 100.956 100.502 100.956 99.662C100.956 98.822 101.154 98.066 101.55 97.394C101.958 96.722 102.504 96.188 103.188 95.792C103.872 95.384 104.634 95.18 105.474 95.18C106.326 95.18 107.094 95.378 107.778 95.774C108.462 96.17 109.002 96.71 109.398 97.394C109.806 98.066 110.01 98.822 110.01 99.662C110.01 100.502 109.806 101.264 109.398 101.948C109.002 102.632 108.462 103.178 107.778 103.586C107.094 103.982 106.326 104.18 105.474 104.18ZM105.474 102.272C105.966 102.272 106.398 102.164 106.77 101.948C107.154 101.72 107.448 101.408 107.652 101.012C107.868 100.616 107.976 100.166 107.976 99.662C107.976 99.158 107.868 98.714 107.652 98.33C107.436 97.946 107.142 97.646 106.77 97.43C106.398 97.202 105.966 97.088 105.474 97.088C104.994 97.088 104.562 97.202 104.178 97.43C103.806 97.646 103.512 97.946 103.296 98.33C103.092 98.714 102.99 99.158 102.99 99.662C102.99 100.166 103.092 100.616 103.296 101.012C103.512 101.408 103.806 101.72 104.178 101.948C104.562 102.164 104.994 102.272 105.474 102.272ZM112.599 104V94.226C112.599 93.566 112.743 92.984 113.031 92.48C113.331 91.976 113.739 91.58 114.255 91.292C114.783 91.004 115.389 90.86 116.073 90.86C116.601 90.86 117.051 90.95 117.423 91.13C117.795 91.31 118.143 91.568 118.467 91.904L117.189 93.182C117.045 93.038 116.889 92.924 116.721 92.84C116.553 92.756 116.337 92.714 116.073 92.714C115.593 92.714 115.221 92.846 114.957 93.11C114.705 93.362 114.579 93.728 114.579 94.208V104H112.599ZM110.529 97.16V95.36H117.189V97.16H110.529ZM46.1755 124.18C45.3115 124.18 44.5315 123.988 43.8355 123.604C43.1515 123.208 42.6055 122.668 42.1975 121.984C41.8015 121.3 41.6035 120.532 41.6035 119.68C41.6035 118.828 41.8015 118.066 42.1975 117.394C42.5935 116.71 43.1275 116.17 43.7995 115.774C44.4835 115.378 45.2395 115.18 46.0675 115.18C46.8715 115.18 47.5795 115.366 48.1915 115.738C48.8155 116.11 49.3015 116.62 49.6495 117.268C50.0095 117.916 50.1895 118.654 50.1895 119.482C50.1895 119.626 50.1775 119.776 50.1535 119.932C50.1415 120.076 50.1175 120.238 50.0815 120.418H42.9895V118.798H49.0555L48.3175 119.446C48.2935 118.918 48.1915 118.474 48.0115 118.114C47.8315 117.754 47.5735 117.478 47.2375 117.286C46.9135 117.094 46.5115 116.998 46.0315 116.998C45.5275 116.998 45.0895 117.106 44.7175 117.322C44.3455 117.538 44.0575 117.844 43.8535 118.24C43.6495 118.624 43.5475 119.086 43.5475 119.626C43.5475 120.166 43.6555 120.64 43.8715 121.048C44.0875 121.456 44.3935 121.774 44.7895 122.002C45.1855 122.218 45.6415 122.326 46.1575 122.326C46.6015 122.326 47.0095 122.248 47.3815 122.092C47.7655 121.936 48.0895 121.708 48.3535 121.408L49.6135 122.686C49.1935 123.178 48.6835 123.55 48.0835 123.802C47.4835 124.054 46.8475 124.18 46.1755 124.18ZM57.0026 124L54.5186 120.346L54.1586 120.022L50.8106 115.36H53.2046L55.4186 118.564L55.7606 118.87L59.3786 124H57.0026ZM50.6486 124L54.1406 119.158L55.2926 120.58L52.9526 124H50.6486ZM55.9406 119.986L54.7706 118.582L56.9306 115.36H59.2166L55.9406 119.986ZM65.3148 124.18C64.6548 124.18 64.0668 124.042 63.5508 123.766C63.0348 123.478 62.6268 123.088 62.3268 122.596C62.0388 122.104 61.8948 121.546 61.8948 120.922V118.438C61.8948 117.814 62.0448 117.256 62.3448 116.764C62.6448 116.272 63.0528 115.888 63.5688 115.612C64.0848 115.324 64.6668 115.18 65.3148 115.18C66.0948 115.18 66.7968 115.384 67.4208 115.792C68.0568 116.188 68.5548 116.728 68.9148 117.412C69.2868 118.084 69.4728 118.846 69.4728 119.698C69.4728 120.538 69.2868 121.3 68.9148 121.984C68.5548 122.656 68.0568 123.19 67.4208 123.586C66.7968 123.982 66.0948 124.18 65.3148 124.18ZM60.6888 127.6V115.36H62.6688V117.682L62.3268 119.788L62.6688 121.876V127.6H60.6888ZM64.9908 122.308C65.4708 122.308 65.8908 122.2 66.2508 121.984C66.6228 121.756 66.9108 121.444 67.1148 121.048C67.3308 120.652 67.4388 120.196 67.4388 119.68C67.4388 119.164 67.3308 118.708 67.1148 118.312C66.9108 117.916 66.6228 117.61 66.2508 117.394C65.8908 117.166 65.4708 117.052 64.9908 117.052C64.5108 117.052 64.0848 117.166 63.7128 117.394C63.3408 117.61 63.0528 117.916 62.8488 118.312C62.6448 118.708 62.5428 119.164 62.5428 119.68C62.5428 120.196 62.6448 120.652 62.8488 121.048C63.0528 121.444 63.3408 121.756 63.7128 121.984C64.0848 122.2 64.5108 122.308 64.9908 122.308ZM75.1442 124.18C74.2802 124.18 73.5002 123.988 72.8042 123.604C72.1202 123.208 71.5742 122.668 71.1662 121.984C70.7702 121.3 70.5722 120.532 70.5722 119.68C70.5722 118.828 70.7702 118.066 71.1662 117.394C71.5622 116.71 72.0962 116.17 72.7682 115.774C73.4522 115.378 74.2082 115.18 75.0362 115.18C75.8402 115.18 76.5482 115.366 77.1602 115.738C77.7842 116.11 78.2702 116.62 78.6182 117.268C78.9782 117.916 79.1582 118.654 79.1582 119.482C79.1582 119.626 79.1462 119.776 79.1222 119.932C79.1102 120.076 79.0862 120.238 79.0502 120.418H71.9582V118.798H78.0242L77.2862 119.446C77.2622 118.918 77.1602 118.474 76.9802 118.114C76.8002 117.754 76.5422 117.478 76.2062 117.286C75.8822 117.094 75.4802 116.998 75.0002 116.998C74.4962 116.998 74.0582 117.106 73.6862 117.322C73.3142 117.538 73.0262 117.844 72.8222 118.24C72.6182 118.624 72.5162 119.086 72.5162 119.626C72.5162 120.166 72.6242 120.64 72.8402 121.048C73.0562 121.456 73.3622 121.774 73.7582 122.002C74.1542 122.218 74.6102 122.326 75.1262 122.326C75.5702 122.326 75.9782 122.248 76.3502 122.092C76.7342 121.936 77.0582 121.708 77.3222 121.408L78.5822 122.686C78.1622 123.178 77.6522 123.55 77.0522 123.802C76.4522 124.054 75.8162 124.18 75.1442 124.18ZM80.7455 124V115.36H82.7255V124H80.7455ZM82.7255 119.194L82.0415 118.852C82.0415 117.76 82.2815 116.878 82.7615 116.206C83.2535 115.522 83.9915 115.18 84.9755 115.18C85.4075 115.18 85.7975 115.258 86.1455 115.414C86.4935 115.57 86.8175 115.822 87.1175 116.17L85.8215 117.502C85.6655 117.334 85.4915 117.214 85.2995 117.142C85.1075 117.07 84.8855 117.034 84.6335 117.034C84.0815 117.034 83.6255 117.208 83.2655 117.556C82.9055 117.904 82.7255 118.45 82.7255 119.194ZM88.0935 124V115.36H90.0735V124H88.0935ZM89.0835 113.776C88.7475 113.776 88.4655 113.662 88.2375 113.434C88.0215 113.206 87.9135 112.924 87.9135 112.588C87.9135 112.252 88.0215 111.97 88.2375 111.742C88.4655 111.514 88.7475 111.4 89.0835 111.4C89.4315 111.4 89.7135 111.514 89.9295 111.742C90.1455 111.97 90.2535 112.252 90.2535 112.588C90.2535 112.924 90.1455 113.206 89.9295 113.434C89.7135 113.662 89.4315 113.776 89.0835 113.776ZM96.3083 124.18C95.4443 124.18 94.6643 123.988 93.9683 123.604C93.2843 123.208 92.7383 122.668 92.3303 121.984C91.9343 121.3 91.7363 120.532 91.7363 119.68C91.7363 118.828 91.9343 118.066 92.3303 117.394C92.7263 116.71 93.2603 116.17 93.9323 115.774C94.6163 115.378 95.3723 115.18 96.2003 115.18C97.0043 115.18 97.7123 115.366 98.3243 115.738C98.9483 116.11 99.4343 116.62 99.7823 117.268C100.142 117.916 100.322 118.654 100.322 119.482C100.322 119.626 100.31 119.776 100.286 119.932C100.274 120.076 100.25 120.238 100.214 120.418H93.1223V118.798H99.1883L98.4503 119.446C98.4263 118.918 98.3243 118.474 98.1443 118.114C97.9643 117.754 97.7063 117.478 97.3703 117.286C97.0463 117.094 96.6443 116.998 96.1643 116.998C95.6603 116.998 95.2223 117.106 94.8503 117.322C94.4783 117.538 94.1903 117.844 93.9863 118.24C93.7823 118.624 93.6803 119.086 93.6803 119.626C93.6803 120.166 93.7883 120.64 94.0043 121.048C94.2203 121.456 94.5263 121.774 94.9223 122.002C95.3183 122.218 95.7743 122.326 96.2903 122.326C96.7343 122.326 97.1423 122.248 97.5143 122.092C97.8983 121.936 98.2223 121.708 98.4863 121.408L99.7463 122.686C99.3263 123.178 98.8163 123.55 98.2163 123.802C97.6163 124.054 96.9803 124.18 96.3083 124.18ZM107.832 124V119.014C107.832 118.438 107.646 117.964 107.274 117.592C106.914 117.22 106.446 117.034 105.87 117.034C105.486 117.034 105.144 117.118 104.844 117.286C104.544 117.454 104.31 117.688 104.142 117.988C103.974 118.288 103.89 118.63 103.89 119.014L103.116 118.582C103.116 117.922 103.26 117.34 103.548 116.836C103.836 116.32 104.232 115.918 104.736 115.63C105.252 115.33 105.828 115.18 106.464 115.18C107.112 115.18 107.688 115.348 108.192 115.684C108.696 116.008 109.092 116.434 109.38 116.962C109.668 117.478 109.812 118.018 109.812 118.582V124H107.832ZM101.91 124V115.36H103.89V124H101.91ZM115.802 124.18C114.95 124.18 114.176 123.982 113.48 123.586C112.796 123.19 112.256 122.65 111.86 121.966C111.464 121.282 111.266 120.52 111.266 119.68C111.266 118.828 111.464 118.066 111.86 117.394C112.256 116.71 112.796 116.17 113.48 115.774C114.176 115.378 114.95 115.18 115.802 115.18C116.474 115.18 117.098 115.312 117.674 115.576C118.262 115.828 118.76 116.194 119.168 116.674L117.872 117.988C117.62 117.688 117.314 117.466 116.954 117.322C116.606 117.166 116.222 117.088 115.802 117.088C115.31 117.088 114.872 117.202 114.488 117.43C114.116 117.646 113.822 117.946 113.606 118.33C113.402 118.714 113.3 119.164 113.3 119.68C113.3 120.184 113.402 120.634 113.606 121.03C113.822 121.414 114.116 121.72 114.488 121.948C114.872 122.164 115.31 122.272 115.802 122.272C116.222 122.272 116.606 122.2 116.954 122.056C117.314 121.9 117.62 121.672 117.872 121.372L119.168 122.686C118.76 123.166 118.262 123.538 117.674 123.802C117.098 124.054 116.474 124.18 115.802 124.18ZM124.433 124.18C123.569 124.18 122.789 123.988 122.093 123.604C121.409 123.208 120.863 122.668 120.455 121.984C120.059 121.3 119.861 120.532 119.861 119.68C119.861 118.828 120.059 118.066 120.455 117.394C120.851 116.71 121.385 116.17 122.057 115.774C122.741 115.378 123.497 115.18 124.325 115.18C125.129 115.18 125.837 115.366 126.449 115.738C127.073 116.11 127.559 116.62 127.907 117.268C128.267 117.916 128.447 118.654 128.447 119.482C128.447 119.626 128.435 119.776 128.411 119.932C128.399 120.076 128.375 120.238 128.339 120.418H121.247V118.798H127.313L126.575 119.446C126.551 118.918 126.449 118.474 126.269 118.114C126.089 117.754 125.831 117.478 125.495 117.286C125.171 117.094 124.769 116.998 124.289 116.998C123.785 116.998 123.347 117.106 122.975 117.322C122.603 117.538 122.315 117.844 122.111 118.24C121.907 118.624 121.805 119.086 121.805 119.626C121.805 120.166 121.913 120.64 122.129 121.048C122.345 121.456 122.651 121.774 123.047 122.002C123.443 122.218 123.899 122.326 124.415 122.326C124.859 122.326 125.267 122.248 125.639 122.092C126.023 121.936 126.347 121.708 126.611 121.408L127.871 122.686C127.451 123.178 126.941 123.55 126.341 123.802C125.741 124.054 125.105 124.18 124.433 124.18Z" fill="white"/>
</svg>
