<svg width="17" height="17" viewBox="0 0 17 17" fill="none" xmlns="http://www.w3.org/2000/svg">
<path d="M0.913086 8.77637C0.913086 4.37012 4.47559 0.776367 8.91309 0.776367C13.3193 0.776367 16.9131 4.37012 16.9131 8.77637C16.9131 13.2139 13.3193 16.7764 8.91309 16.7764C4.47559 16.7764 0.913086 13.2139 0.913086 8.77637ZM12.5068 7.40137C12.8506 7.05762 12.8506 6.52637 12.5068 6.18262C12.1631 5.83887 11.6318 5.83887 11.2881 6.18262L7.91309 9.55762L6.50684 8.18262C6.16309 7.83887 5.63184 7.83887 5.28809 8.18262C4.94434 8.52637 4.94434 9.05762 5.28809 9.40137L7.28809 11.4014C7.63184 11.7451 8.16309 11.7451 8.50684 11.4014L12.5068 7.40137Z" fill="#008080"/>
</svg>
