<svg width="329" height="205" viewBox="0 0 329 205" fill="none" xmlns="http://www.w3.org/2000/svg">
<mask id="mask0_1152_117" style="mask-type:luminance" maskUnits="userSpaceOnUse" x="38" y="-43" width="347" height="146">
<path d="M370.055 76.3734L368.782 75.0283C307.349 81.2198 234.707 75.0343 189.319 25.7063C150.232 -16.7714 117.012 -35.6904 86.0489 -40.0739L83.7069 -38.875C114.7 -35.0873 148.053 -16.4606 187.63 26.5503C233.84 76.7616 307.827 82.7991 370.055 76.3734ZM371.738 78.1507L370.471 76.8125C307.936 83.9148 232.333 78.8575 185.609 28.0738C146.221 -14.7382 112.784 -33.6175 81.6154 -37.8145L79.2449 -36.601C110.449 -33.0233 144.029 -14.4411 183.921 28.9178C231.473 80.5917 308.449 85.4864 371.738 78.1507ZM373.369 79.8732L372.115 78.5488C308.599 86.5405 229.967 82.6877 181.907 30.4481C142.2 -12.7001 108.546 -31.5397 77.176 -35.5317L74.7864 -34.3084C106.211 -30.9455 140.004 -12.4216 180.218 31.2922C229.107 84.4218 309.114 88.1003 373.369 79.8732ZM374.948 81.5408L373.7 80.2232C309.305 89.0929 227.616 86.5198 178.204 32.8225C138.182 -10.6737 104.318 -29.4668 72.714 -33.2576L70.2958 -32.0197C101.935 -28.8785 135.947 -10.4061 176.499 33.6645C226.753 88.2657 309.842 90.6312 374.948 81.5408ZM376.475 83.1535L375.234 81.8428C310.09 91.5642 225.255 90.3567 174.495 35.19C134.164 -8.64735 100.073 -27.3959 68.2584 -30.9767L65.8117 -29.7242C97.6744 -26.8096 131.919 -8.40522 172.8 36.0272C224.399 92.1095 310.647 93.0928 376.475 83.1535ZM377.943 84.7044L376.715 83.4074C310.96 93.9614 222.902 94.2006 170.786 37.5575C130.13 -6.62298 95.8196 -25.3201 63.7839 -28.6861L61.3182 -27.4238C93.398 -24.7426 127.872 -6.39457 169.097 38.4015C222.068 95.9622 311.536 95.4802 377.943 84.7044ZM379.379 86.2211L378.151 84.9241C311.909 96.2775 220.567 98.065 167.083 39.9319C126.099 -4.61033 91.5592 -23.2511 59.3094 -26.3955L56.8055 -25.1137C89.1215 -22.6757 123.822 -4.40253 165.388 40.769C219.733 99.8266 312.504 97.7865 379.379 86.2211ZM380.763 87.6828L379.541 86.3926C312.953 98.5145 218.256 101.938 163.374 42.2993C122.061 -2.60456 87.2892 -21.1773 54.8158 -24.0951L52.2929 -22.8036C84.8291 -20.6107 119.762 -2.40559 161.685 43.1434C217.425 103.718 313.583 100.016 380.763 87.6828ZM382.108 89.1033L380.893 87.82C314.123 100.676 215.954 105.837 159.671 44.6737C118.014 -0.593903 83.0288 -19.1084 50.3222 -21.7947L47.7612 -20.4837C80.5367 -18.5458 115.714 -0.425271 157.976 45.5109C215.13 107.624 314.775 102.156 382.108 89.1033ZM383.407 90.4758L382.199 89.1994C315.427 102.74 213.671 109.756 155.962 47.0412C113.964 1.39815 78.7364 -17.0434 45.8096 -19.4846L43.22 -18.1589C76.2347 -16.4759 111.641 1.55792 154.273 47.8853C212.854 111.55 316.098 104.21 383.407 90.4758ZM90.4788 -42.3519C121.234 -37.7702 154.247 -18.8164 193.021 23.3319C237.073 71.2042 306.79 78.4495 367.021 73.1686L368.308 74.5273C307.255 80.0454 236.191 72.9295 191.326 24.1691C152.065 -18.4939 118.922 -37.1671 88.1399 -41.1648L90.4723 -42.3588L90.4788 -42.3519ZM384.674 91.814C317.566 106.179 210.61 115.511 150.571 50.2596C107.578 3.53626 71.9263 -14.413 38.6598 -15.8244L41.2874 -17.1696C74.4504 -14.9716 109.91 3.40193 152.25 49.4205C211.412 113.715 316.85 104.721 383.456 90.5425L384.665 91.8189L384.674 91.814Z" fill="white"/>
</mask>
<g mask="url(#mask0_1152_117)">
<path d="M203.099 -99.9933L38.6602 -15.8108L220.23 175.976L384.668 91.7931L203.099 -99.9933Z" fill="#008080" fill-opacity="0.1"/>
</g>
</svg>
