<svg width="46" height="49" viewBox="0 0 46 49" fill="none" xmlns="http://www.w3.org/2000/svg">
<path d="M42.1252 14.1868C41.2471 14.1878 40.4052 14.5368 39.7842 15.1572C39.1632 15.7776 38.814 16.6188 38.813 17.4962V22.5769C29.4962 21.1583 29.3476 11.7571 29.3466 11.3476L29.3447 11.3362V6.62053C29.3447 4.86465 28.6466 3.1807 27.4039 1.93911C26.1612 0.697518 24.4757 0 22.7183 0C20.9608 0 19.2754 0.697518 18.0327 1.93911C16.79 3.1807 16.0918 4.86465 16.0918 6.62053V11.3495C16.0918 11.7581 15.9763 21.1554 6.62549 22.5769V17.4971C6.61081 16.629 6.25533 15.8014 5.63566 15.1926C5.016 14.5839 4.18177 14.2428 3.31275 14.2428C2.44373 14.2428 1.60949 14.5839 0.98983 15.1926C0.370168 15.8014 0.0146886 16.629 0 17.4971V33.1026C0 33.3535 0.0997344 33.594 0.277263 33.7714C0.454791 33.9488 0.695571 34.0484 0.946634 34.0484C1.1977 34.0484 1.43848 33.9488 1.61601 33.7714C1.79353 33.594 1.89327 33.3535 1.89327 33.1026V17.4962C1.90283 17.1264 2.05657 16.7749 2.32174 16.5168C2.5869 16.2586 2.9425 16.1141 3.31275 16.1141C3.68299 16.1141 4.0386 16.2586 4.30376 16.5168C4.56892 16.7749 4.72267 17.1264 4.73223 17.4962V23.6447C4.73223 23.9341 6.5403 38.6185 2.99799 43.9272C2.92694 44.0336 2.87824 44.1534 2.85486 44.2792C2.83147 44.405 2.83388 44.5342 2.86193 44.6591C2.88999 44.7839 2.9431 44.9018 3.01807 45.0055C3.09304 45.1093 3.18829 45.1967 3.29807 45.2626C3.50065 45.3837 8.42031 48.2353 22.7202 48.2353C37.0181 48.2353 41.9378 45.3837 42.1404 45.2626C42.2502 45.1967 42.3454 45.1093 42.4204 45.0055C42.4953 44.9018 42.5485 44.7839 42.5765 44.6591C42.6046 44.5342 42.607 44.405 42.5836 44.2792C42.5602 44.1534 42.5115 44.0336 42.4405 43.9272C38.8688 38.574 40.7062 23.7469 40.7062 23.6447V17.4962C40.7158 17.1264 40.8695 16.7749 41.1347 16.5168C41.3999 16.2586 41.7555 16.1141 42.1257 16.1141C42.4959 16.1141 42.8516 16.2586 43.1167 16.5168C43.3819 16.7749 43.5356 17.1264 43.5452 17.4962V33.1026C43.5452 33.3535 43.6449 33.594 43.8224 33.7714C44 33.9488 44.2408 34.0484 44.4918 34.0484C44.7429 34.0484 44.9837 33.9488 45.1612 33.7714C45.3387 33.594 45.4384 33.3535 45.4384 33.1026V17.4962C45.4374 16.6186 45.088 15.7773 44.4669 15.1569C43.8457 14.5365 43.0036 14.1876 42.1252 14.1868ZM22.7192 1.89158C23.9741 1.89308 25.1771 2.39179 26.0644 3.27831C26.9517 4.16484 27.4509 5.36679 27.4524 6.62053V10.6411C24.3641 11.5608 21.0744 11.5608 17.9861 10.6411V6.62053C17.9876 5.36679 18.4867 4.16484 19.374 3.27831C20.2613 2.39179 21.4644 1.89308 22.7192 1.89158ZM40.3153 44.0227C38.4192 44.7699 33.1824 46.3437 22.7183 46.3437C12.2513 46.3437 7.01361 44.7689 5.12319 44.0237C7.89114 38.4974 7.05243 27.7097 6.7211 24.46C15.6308 23.2059 17.5014 15.6188 17.8848 12.5903C21.0497 13.4549 24.3888 13.4549 27.5537 12.5903C27.9371 15.6197 29.8086 23.2059 38.7173 24.46C38.386 27.7088 37.5483 38.4965 40.3153 44.0227Z" fill="#0066D0"/>
<path d="M28.3992 20.8069H22.7194C22.4683 20.8069 22.2275 20.9065 22.05 21.0839C21.8725 21.2613 21.7727 21.5018 21.7727 21.7527V26.4816C21.7727 27.485 22.1717 28.4472 22.8818 29.1567C23.5919 29.8662 24.555 30.2648 25.5593 30.2648C26.5635 30.2648 27.5266 29.8662 28.2367 29.1567C28.9469 28.4472 29.3458 27.485 29.3458 26.4816V21.7527C29.3458 21.5018 29.2461 21.2613 29.0685 21.0839C28.891 20.9065 28.6502 20.8069 28.3992 20.8069ZM27.4525 26.4816C27.4525 26.9833 27.2531 27.4644 26.898 27.8192C26.5429 28.1739 26.0614 28.3732 25.5593 28.3732C25.0571 28.3732 24.5756 28.1739 24.2205 27.8192C23.8655 27.4644 23.666 26.9833 23.666 26.4816V22.6985H27.4525V26.4816ZM36.3982 41.7154C35.3071 41.0821 34.3648 40.2221 33.6348 39.1937C32.9048 38.1653 32.4042 36.9924 32.1668 35.7541C32.1145 35.5112 31.9687 35.2985 31.7608 35.1621C31.5529 35.0257 31.2996 34.9766 31.0557 35.0253C30.8118 35.074 30.5969 35.2167 30.4574 35.4224C30.3179 35.6282 30.2651 35.8805 30.3104 36.1249C30.6061 37.6442 31.2274 39.0817 32.1314 40.3386C33.0355 41.5955 34.2011 42.642 35.5481 43.4065C35.7726 43.5191 36.0326 43.5381 36.271 43.4591C36.5095 43.3802 36.7067 43.2099 36.8195 42.9856C36.9322 42.7614 36.9511 42.5016 36.8721 42.2634C36.7931 42.0252 36.6227 41.8281 36.3982 41.7154ZM14.3842 35.0126C14.2623 34.9875 14.1366 34.9867 14.0143 35.0104C13.8921 35.0342 13.7758 35.0819 13.6721 35.1509C13.5685 35.2198 13.4796 35.3087 13.4106 35.4122C13.3415 35.5158 13.2938 35.632 13.27 35.7541C13.0323 36.9923 12.5315 38.1651 11.8016 39.1934C11.0716 40.2218 10.1295 41.0818 9.03859 41.7154C8.81414 41.8281 8.64367 42.0252 8.56467 42.2634C8.48567 42.5016 8.50461 42.7614 8.61734 42.9856C8.73007 43.2099 8.92734 43.3802 9.16576 43.4591C9.40418 43.5381 9.66422 43.5191 9.88867 43.4065C11.2357 42.642 12.4013 41.5955 13.3054 40.3386C14.2095 39.0817 14.8307 37.6442 15.1264 36.1249C15.1755 35.8791 15.1248 35.6239 14.9857 35.4153C14.8465 35.2068 14.6302 35.0619 14.3842 35.0126Z" fill="#0066D0"/>
</svg>
