<svg width="45" height="45" viewBox="0 0 45 45" fill="none" xmlns="http://www.w3.org/2000/svg">
<path d="M29.279 29.6184C29.4798 29.736 29.7187 29.7701 29.9443 29.7132C30.1699 29.6564 30.3642 29.5131 30.4852 29.3144C30.6062 29.1157 30.6443 28.8773 30.5912 28.6508C30.5382 28.4243 30.3982 28.2276 30.2016 28.1033C24.6664 24.7307 19.2332 26.8703 17.4299 27.7662L14.6029 24.8939C15.4748 23.0906 17.6091 17.5607 14.2835 11.9296C14.1639 11.727 13.9687 11.5801 13.7408 11.5214C13.5129 11.4627 13.271 11.4969 13.0683 11.6165C12.8656 11.7361 12.7188 11.9314 12.66 12.1593C12.6013 12.3872 12.6355 12.6291 12.7552 12.8318C16.0017 18.3297 13.2182 23.7691 12.8039 24.5196L1.03284 36.4789C0.37473 37.1541 0.00640874 38.0597 0.00640874 39.0025C0.00640874 39.9454 0.37473 40.851 1.03284 41.5262C1.35919 41.8595 1.74877 42.1243 2.17877 42.305C2.60877 42.4858 3.07053 42.5789 3.53697 42.5789C4.00342 42.5789 4.46518 42.4858 4.89518 42.305C5.32517 42.1243 5.71476 41.8595 6.0411 41.5262L17.8122 29.5669C18.5609 29.1403 23.8911 26.3336 29.279 29.6184ZM4.77706 40.2817C4.61574 40.4472 4.42293 40.5787 4.20999 40.6686C3.99704 40.7584 3.76828 40.8047 3.53716 40.8048C3.30604 40.8049 3.07724 40.7587 2.86424 40.669C2.65123 40.5793 2.45833 40.4479 2.29688 40.2826C1.96322 39.94 1.77649 39.4807 1.77649 39.0025C1.77649 38.5243 1.96322 38.0651 2.29688 37.7225L4.78416 35.1962L7.28297 37.7349L4.77706 40.2817ZM8.52749 36.4709L6.02869 33.9321L13.5189 26.3221L16.0177 28.8608L8.52749 36.4709Z" fill="#0066D0"/>
<path d="M19.0239 22.0243C18.8916 22.2189 18.8419 22.458 18.8859 22.6892C18.9299 22.9203 19.064 23.1245 19.2585 23.2569C19.4531 23.3892 19.6922 23.4388 19.9234 23.3948C20.1545 23.3508 20.3587 23.2168 20.4911 23.0222C22.1758 20.2726 23.0143 17.088 22.9021 13.8652C22.79 10.6424 21.7322 7.52386 19.8604 4.89795C19.7251 4.70539 19.5189 4.57446 19.2871 4.53395C19.0553 4.49344 18.8169 4.54668 18.6243 4.68196C18.4317 4.81723 18.3008 5.02346 18.2603 5.25528C18.2198 5.48709 18.273 5.7255 18.4083 5.91807C20.1061 8.23492 21.0719 11.0067 21.1816 13.877C21.2913 16.7472 20.5399 19.5846 19.0239 22.0243ZM24.465 17.8791C24.2449 17.9565 24.0642 18.1174 23.9619 18.3271C23.8597 18.5368 23.8441 18.7783 23.9187 18.9994C23.9932 19.2205 24.1518 19.4033 24.3602 19.5082C24.5686 19.6132 24.8099 19.6318 25.0319 19.5601C27.2912 18.933 29.6789 18.9354 31.9369 19.5671C34.195 20.1987 36.2374 21.4355 37.8435 23.1438C38.0085 23.3115 38.2334 23.4068 38.4687 23.4087C38.704 23.4107 38.9305 23.319 39.0982 23.154C39.2659 22.9889 39.3612 22.764 39.3632 22.5287C39.3651 22.2934 39.2734 22.067 39.1084 21.8992C37.2691 19.9533 34.9312 18.5494 32.3492 17.8404C29.7672 17.1313 27.0401 17.1444 24.465 17.8782V17.8791ZM27.057 12.6588C26.9619 12.8741 26.9563 13.1183 27.0413 13.3377C27.1263 13.5571 27.295 13.7338 27.5103 13.8288C27.7255 13.9239 27.9697 13.9295 28.1892 13.8445C28.4086 13.7595 28.5852 13.5908 28.6803 13.3755C28.7841 13.1405 31.164 7.56 25.3583 0.332285C25.2853 0.241481 25.1952 0.165941 25.093 0.109978C24.9908 0.0540148 24.8786 0.0187245 24.7628 0.00612176C24.647 -0.00648095 24.5298 0.00385081 24.418 0.0365272C24.3062 0.0692035 24.2019 0.123585 24.1111 0.196565C24.0203 0.269546 23.9448 0.359697 23.8888 0.461872C23.8328 0.564046 23.7976 0.676243 23.785 0.792056C23.7724 0.907869 23.7827 1.02503 23.8154 1.13685C23.848 1.24867 23.9024 1.35296 23.9754 1.44376C29.0617 7.77378 27.1457 12.4548 27.057 12.6588ZM31.8923 12.5878C32.1016 12.5204 37.0992 10.9796 42.8349 16.8058C42.9999 16.9735 43.2248 17.0688 43.4601 17.0707C43.6954 17.0726 43.9219 16.981 44.0896 16.816C44.2573 16.6509 44.3526 16.426 44.3546 16.1907C44.3565 15.9554 44.2648 15.729 44.0998 15.5612C37.5445 8.903 31.5791 10.8226 31.3281 10.906C31.2176 10.943 31.1155 11.0015 31.0276 11.078C30.9397 11.1545 30.8677 11.2475 30.8158 11.3519C30.7109 11.5626 30.694 11.8063 30.7688 12.0294C30.8436 12.2526 31.004 12.4369 31.2147 12.5417C31.4254 12.6466 31.6691 12.6635 31.8923 12.5887V12.5878ZM38.1451 25.7251C37.9098 25.7251 37.6842 25.8186 37.5178 25.9849C37.3515 26.1513 37.258 26.3769 37.258 26.6122C37.258 26.8474 37.3515 27.073 37.5178 27.2394C37.6842 27.4058 37.9098 27.4992 38.1451 27.4992C38.8251 27.4995 39.4961 27.6562 40.1059 27.9572C40.7158 28.2582 41.2482 28.6954 41.6622 29.235C42.0761 29.7746 42.3604 30.4022 42.4931 31.0692C42.6258 31.7362 42.6033 32.4248 42.4273 33.0818C42.2514 33.7387 41.9268 34.3464 41.4785 34.8579C41.0303 35.3693 40.4704 35.7708 39.8422 36.0314C39.214 36.2919 38.5343 36.4045 37.8556 36.3604C37.177 36.3164 36.5176 36.1168 35.9283 35.7772C35.8096 35.7085 35.6766 35.6684 35.5397 35.6598C35.4029 35.6512 35.2659 35.6745 35.1395 35.7278C35.0132 35.7811 34.9009 35.8629 34.8115 35.9669C34.7221 36.0709 34.6581 36.1942 34.6244 36.3272C33.9502 38.9972 30.6158 39.5534 29.8769 38.5164C29.7752 38.3734 29.6333 38.2638 29.4693 38.2015C29.3053 38.1391 29.1264 38.1268 28.9554 38.1662C28.7844 38.2055 28.6289 38.2946 28.5085 38.4223C28.3882 38.5501 28.3084 38.7106 28.2793 38.8837C28.1488 39.6542 27.8169 40.3765 27.3174 40.9774C26.8179 41.5784 26.1685 42.0368 25.4349 42.3061C24.7013 42.5754 23.9096 42.6461 23.1399 42.511C22.3702 42.376 21.6498 42.0399 21.0518 41.5369C20.4537 41.0339 19.9991 40.3819 19.7341 39.6467C19.4691 38.9115 19.403 38.1194 19.5425 37.3505C19.6821 36.5816 20.0223 35.8632 20.5288 35.2681C21.0352 34.6729 21.6899 34.2222 22.4266 33.9614C22.5365 33.9226 22.6377 33.8626 22.7244 33.7847C22.8111 33.7068 22.8816 33.6125 22.9319 33.5074C22.9822 33.4023 23.0113 33.2882 23.0175 33.1718C23.0237 33.0555 23.0069 32.939 22.9682 32.8291C22.9294 32.7192 22.8693 32.618 22.7914 32.5313C22.7135 32.4446 22.6193 32.3741 22.5142 32.3238C22.409 32.2735 22.295 32.2444 22.1786 32.2382C22.0622 32.232 21.9457 32.2487 21.8358 32.2875C20.8578 32.6339 19.9821 33.2197 19.2888 33.9915C18.5954 34.7633 18.1064 35.6965 17.8664 36.706C17.6265 37.7154 17.6432 38.7688 17.9151 39.7701C18.187 40.7714 18.7054 41.6886 19.4229 42.438C20.1405 43.1874 21.0343 43.7451 22.0228 44.0602C23.0114 44.3753 24.0631 44.4378 25.0819 44.2419C26.1008 44.0459 27.0544 43.5979 27.8555 42.9387C28.6567 42.2795 29.28 41.43 29.6685 40.4679C31.737 41.3665 34.761 40.2861 35.9833 37.7553C36.8349 38.0716 37.7455 38.1972 38.651 38.1232C39.5564 38.0493 40.4345 37.7775 41.2235 37.3272C42.0124 36.8768 42.693 36.2588 43.2171 35.5168C43.7412 34.7748 44.0961 33.9268 44.2567 33.0327C44.4174 32.1386 44.3799 31.2201 44.1469 30.342C43.9139 29.464 43.4911 28.6477 42.9083 27.9509C42.3255 27.254 41.5969 26.6935 40.7739 26.3089C39.9509 25.9244 39.0535 25.7251 38.1451 25.7251ZM6.21142 24.838C6.44668 24.838 6.6723 24.7446 6.83865 24.5782C7.00501 24.4119 7.09846 24.1863 7.09846 23.951C7.09846 23.7157 7.00501 23.4901 6.83865 23.3238C6.6723 23.1574 6.44668 23.0639 6.21142 23.0639C5.12678 23.0654 4.07921 22.6693 3.26681 21.9507C2.45442 21.232 1.93353 20.2406 1.80266 19.1638C1.67178 18.0871 1.94 16.9998 2.55657 16.1074C3.17314 15.215 4.09533 14.5796 5.14874 14.3211C5.31094 14.2812 5.45856 14.1962 5.57461 14.0761C5.69066 13.9559 5.77043 13.8054 5.80472 13.6419C5.83901 13.4784 5.82644 13.3086 5.76845 13.1519C5.71047 12.9952 5.60942 12.8581 5.47694 12.7564C5.15259 12.5085 4.88997 12.1889 4.70962 11.8227C4.52927 11.4564 4.43607 11.0534 4.43733 10.6452C4.43928 10.2916 4.5113 9.94188 4.64924 9.61629C4.78718 9.2907 4.98829 8.99569 5.24095 8.74831C5.49361 8.50092 5.7928 8.30608 6.12122 8.17505C6.44965 8.04401 6.80079 7.97939 7.15435 7.9849H7.15612C7.2864 7.98724 7.41559 7.96084 7.53452 7.90759C7.65344 7.85433 7.75917 7.77554 7.84419 7.6768C7.92921 7.57805 7.99144 7.46179 8.02644 7.33628C8.06144 7.21077 8.06837 7.07909 8.04671 6.9506C7.88574 6.00204 8.03757 5.02686 8.4793 4.17215C8.92103 3.31743 9.62871 2.62953 10.4956 2.21221C11.3625 1.79488 12.3416 1.67076 13.2852 1.85856C14.2288 2.04636 15.0857 2.53591 15.7268 3.25335C15.8843 3.42612 16.1038 3.52967 16.3373 3.54148C16.5708 3.5533 16.7996 3.47242 16.9738 3.31644C17.148 3.16047 17.2536 2.94201 17.2676 2.70859C17.2816 2.47518 17.2028 2.24568 17.0485 2.07002C16.205 1.12697 15.0937 0.464049 13.8632 0.170016C12.6326 -0.124017 11.3416 -0.0351347 10.163 0.424765C8.98436 0.884664 7.97434 1.69363 7.26813 2.74338C6.56193 3.79313 6.19324 5.03355 6.21142 6.29861C5.5007 6.44436 4.83651 6.76199 4.27691 7.22374C3.71731 7.68549 3.27935 8.2773 3.00131 8.94742C2.72327 9.61754 2.61362 10.3456 2.68195 11.0679C2.75028 11.7901 2.9945 12.4847 3.39327 13.0908C2.15005 13.7241 1.15622 14.7575 0.571929 16.0245C-0.0123662 17.2916 -0.15311 18.7184 0.172374 20.0752C0.497859 21.4319 1.27062 22.6396 2.36614 23.5036C3.46167 24.3676 4.81617 24.8377 6.21142 24.838Z" fill="#0066D0"/>
</svg>
