<svg width="46" height="46" viewBox="0 0 46 46" fill="none" xmlns="http://www.w3.org/2000/svg">
<path opacity="0.4" d="M39.5331 36.7791V31.2629H37.6944V36.7791C37.6944 37.023 37.5975 37.2568 37.4251 37.4292C37.2527 37.6016 37.0188 37.6985 36.775 37.6985H31.2588V39.5372H36.775C37.0188 39.5372 37.2527 39.6341 37.4251 39.8065C37.5975 39.9789 37.6944 40.2128 37.6944 40.4566V45.9728H39.5331V40.4566C39.5331 40.2128 39.63 39.9789 39.8024 39.8065C39.9748 39.6341 40.2086 39.5372 40.4525 39.5372H45.9687V37.6985H40.4525C40.2086 37.6985 39.9748 37.6016 39.8024 37.4292C39.63 37.2568 39.5331 37.023 39.5331 36.7791Z" fill="white"/>
<path d="M45.4195 37.3004L44.9828 36.7139C43.5894 34.8629 42.6502 32.7106 42.2409 30.4302C41.8317 28.1499 41.9637 25.8053 42.6265 23.5853C43.1394 21.8618 43.2448 20.0426 42.9345 18.2714L41.1941 8.39644C41.0973 7.85606 40.8654 7.34897 40.5199 6.92239C40.1743 6.49581 39.7264 6.16362 39.2179 5.95677C38.7094 5.74991 38.1568 5.67513 37.6116 5.73937C37.0664 5.80361 36.5464 6.0048 36.0999 6.32418L35.962 5.54088C35.8652 5.00051 35.6333 4.49342 35.2877 4.06683C34.9422 3.64025 34.4943 3.30807 33.9858 3.10121C33.4773 2.89436 32.9247 2.81957 32.3795 2.88382C31.8343 2.94806 31.3143 3.14924 30.8678 3.46863L30.7299 2.68533C30.5808 1.83704 30.1008 1.08273 29.3955 0.588328C28.6903 0.0939286 27.8175 -0.100057 26.9692 0.0490459C26.1209 0.198149 25.3666 0.678126 24.8722 1.38339C24.3778 2.08865 24.1838 2.96143 24.3329 3.80972L24.8487 6.73514C24.4602 6.19438 23.9146 5.78644 23.286 5.56683C22.6574 5.34722 21.9765 5.3266 21.3358 5.50779L21.6355 3.80972C21.7756 2.96541 21.5768 2.09991 21.0822 1.40143C20.5876 0.702951 19.8373 0.227975 18.9943 0.0797923C18.1514 -0.0683906 17.284 0.122203 16.5809 0.610126C15.8777 1.09805 15.3956 1.84384 15.2394 2.68533L15.1015 3.46955C14.6552 3.14992 14.1352 2.9485 13.5899 2.88407C13.0447 2.81965 12.4921 2.89431 11.9835 3.10109C11.4749 3.30788 11.027 3.64007 10.6815 4.06668C10.3359 4.4933 10.104 5.00046 10.0073 5.54088L9.86943 6.32418C9.42293 6.0048 8.90286 5.80361 8.35767 5.73937C7.81247 5.67513 7.25988 5.74991 6.75138 5.95677C6.24287 6.16362 5.79499 6.49581 5.44946 6.92239C5.10392 7.34897 4.87197 7.85606 4.77521 8.39644L3.03393 18.2714C2.72354 20.0426 2.82897 21.8618 3.34192 23.5853C3.99751 25.7902 4.13221 28.1173 3.73541 30.3831C3.32822 32.6796 2.38621 34.848 0.985583 36.7129L0.547965 37.3013C0.126139 37.8687 -0.0631823 38.5757 0.018662 39.278C0.100506 39.9802 0.447343 40.6248 0.988341 41.0799C4.46299 44.1776 8.94006 45.9153 13.5947 45.9728C15.9945 45.9519 18.3735 45.5261 20.6315 44.7133C20.9838 44.5844 21.3066 44.3859 21.5806 44.1297C21.8545 43.8734 22.0741 43.5647 22.2262 43.2218C22.3783 42.8789 22.4598 42.5088 22.4659 42.1338C22.472 41.7587 22.4025 41.3862 22.2616 41.0386C20.9708 37.6774 21.3919 32.7854 21.6327 30.8391C21.6539 30.6804 21.7161 30.5299 21.8131 30.4026C21.9102 30.2752 22.0388 30.1753 22.1862 30.1128C22.4583 29.9924 22.7231 29.8517 22.9851 29.7028C23.2508 29.8545 23.5174 29.9951 23.7822 30.1137C23.9296 30.1761 24.0581 30.2758 24.1552 30.403C24.2522 30.5302 24.3144 30.6805 24.3357 30.8391C24.5765 32.7854 24.9976 37.6774 23.7068 41.0386C23.5657 41.3861 23.4961 41.7586 23.5021 42.1336C23.508 42.5087 23.5894 42.8787 23.7415 43.2217C23.8935 43.5646 24.113 43.8734 24.387 44.1297C24.6609 44.3859 24.9836 44.5844 25.3359 44.7133C32.5024 47.2103 39.1126 45.993 44.98 41.0818C45.5213 40.6261 45.8682 39.981 45.9498 39.2783C46.0315 38.5755 45.8418 37.868 45.4195 37.3004ZM20.0284 42.9757C13.4163 45.2787 7.57469 44.1984 2.16697 39.6687C1.98547 39.5152 1.86945 39.2982 1.84262 39.0621C1.81579 38.8259 1.88018 38.5884 2.02263 38.3981L2.42899 37.8502C4.83378 39.983 7.77397 41.4207 10.934 42.009C14.0941 42.5973 17.3547 42.3139 20.3658 41.1893C20.4219 41.3613 20.4826 41.5313 20.546 41.6968C20.5983 41.8145 20.6264 41.9415 20.6286 42.0702C20.6308 42.1989 20.607 42.3268 20.5587 42.4461C20.5104 42.5655 20.4385 42.6739 20.3474 42.7648C20.2563 42.8558 20.1478 42.9275 20.0284 42.9757ZM21.4387 28.4322C21.0014 28.6226 20.6213 28.9237 20.3358 29.3058C20.0503 29.6879 19.8693 30.1378 19.8105 30.6111C19.4084 33.5307 19.4407 36.4938 19.9062 39.4039C13.8255 41.5102 8.43246 40.498 3.45684 36.3149C4.48821 34.5861 5.19574 32.6838 5.54472 30.7012C5.99068 28.1531 5.83898 25.5362 5.10159 23.0567C4.67063 21.608 4.58219 20.079 4.84325 18.5904L6.58269 8.71638C6.6521 8.35282 6.86166 8.03112 7.16614 7.82068C7.47063 7.61024 7.84563 7.52794 8.21026 7.59152C8.57488 7.65511 8.8999 7.85949 9.11518 8.16057C9.33046 8.46165 9.41876 8.83529 9.36102 9.20088L7.66754 18.8092C7.64135 18.9301 7.63983 19.055 7.66306 19.1765C7.68629 19.298 7.7338 19.4136 7.80275 19.5163C7.8717 19.619 7.96066 19.7067 8.06431 19.7742C8.16796 19.8417 8.28417 19.8876 8.40598 19.9092C8.52779 19.9307 8.65269 19.9274 8.77321 19.8996C8.89372 19.8717 9.00738 19.8198 9.10736 19.747C9.20735 19.6741 9.29161 19.5819 9.3551 19.4757C9.41859 19.3696 9.46 19.2517 9.47686 19.1291L10.1204 15.4802L10.1223 15.4682L11.8157 5.86082C11.8784 5.49203 12.085 5.16323 12.3901 4.94677C12.6952 4.7303 13.0738 4.64389 13.4425 4.70656C13.8113 4.76922 14.1401 4.97582 14.3566 5.28091C14.5731 5.586 14.6595 5.96458 14.5968 6.33338L12.8987 15.9536C12.8723 16.0746 12.8706 16.1998 12.8937 16.3214C12.9168 16.4431 12.9643 16.5589 13.0333 16.6618C13.1023 16.7647 13.1913 16.8526 13.2951 16.9202C13.3989 16.9878 13.5153 17.0337 13.6373 17.0552C13.7593 17.0767 13.8843 17.0734 14.005 17.0453C14.1257 17.0173 14.2394 16.9652 14.3394 16.8921C14.4394 16.819 14.5236 16.7264 14.587 16.62C14.6503 16.5136 14.6915 16.3954 14.7081 16.2727L17.0478 3.00435C17.1212 2.64456 17.3319 2.32755 17.6353 2.12072C17.9387 1.91389 18.3108 1.83355 18.6726 1.89676C19.0343 1.95998 19.357 2.16178 19.5723 2.45926C19.7876 2.75674 19.8783 3.12644 19.8253 3.48978L17.3246 17.6738C17.2966 17.7953 17.2937 17.9212 17.316 18.0439C17.3383 18.1666 17.3853 18.2835 17.4542 18.3875C17.5231 18.4914 17.6124 18.5803 17.7167 18.6486C17.8209 18.717 17.9381 18.7634 18.0609 18.7851C18.1837 18.8067 18.3096 18.8032 18.431 18.7746C18.5524 18.7461 18.6667 18.6932 18.767 18.6191C18.8673 18.5449 18.9514 18.4512 19.0144 18.3435C19.0773 18.2359 19.1176 18.1165 19.133 17.9928L20.8301 8.36886C20.9003 8.00431 21.1113 7.68211 21.4175 7.47217C21.7236 7.26223 22.1002 7.18148 22.4656 7.24743C22.8309 7.31338 23.1555 7.52071 23.3689 7.82446C23.5824 8.1282 23.6674 8.50385 23.6057 8.86991L21.4268 21.2234C21.3956 21.4022 21.418 21.5862 21.4911 21.7522C21.5643 21.9183 21.6849 22.0589 21.8379 22.1566C21.9908 22.2542 22.1692 22.3043 22.3507 22.3007C22.5321 22.2972 22.7084 22.24 22.8573 22.1364C24.4073 21.0967 26.0778 20.249 27.832 19.6118C27.9277 19.5782 28.0313 19.574 28.1294 19.5995C28.2276 19.6251 28.3159 19.6793 28.383 19.7553C28.4502 19.8312 28.4933 19.9255 28.5066 20.026C28.52 20.1266 28.5031 20.2288 28.4581 20.3197C27.2353 22.7266 24.6961 26.9814 21.4378 28.4331L21.4387 28.4322ZM24.6694 28.5186C26.9315 26.4321 28.7736 23.9322 30.0964 21.1536C30.3068 20.7363 30.388 20.2659 30.3297 19.8022C30.2714 19.3386 30.0763 18.9029 29.7693 18.5506C29.4623 18.1984 29.0572 17.9457 28.6059 17.8247C28.1545 17.7037 27.6774 17.72 27.2353 17.8714C25.9749 18.3176 24.7558 18.8729 23.5919 19.5309L25.3479 9.56679L26.2847 14.8743C26.3001 14.998 26.3404 15.1174 26.4033 15.225C26.4663 15.3327 26.5504 15.4265 26.6507 15.5006C26.751 15.5747 26.8653 15.6276 26.9867 15.6561C27.1081 15.6847 27.234 15.6882 27.3568 15.6666C27.4796 15.6449 27.5967 15.5985 27.701 15.5301C27.8053 15.4618 27.8946 15.3729 27.9635 15.269C28.0324 15.165 28.0794 15.0481 28.1017 14.9254C28.124 14.8028 28.121 14.6768 28.0931 14.5553L26.1422 3.48886C26.0845 3.12326 26.1728 2.74962 26.3881 2.44854C26.6033 2.14746 26.9284 1.94308 27.293 1.8795C27.6576 1.81591 28.0326 1.89822 28.3371 2.10865C28.6416 2.31909 28.8511 2.64079 28.9205 3.00435L31.2585 16.2727C31.275 16.3954 31.3162 16.5136 31.3796 16.62C31.4429 16.7264 31.5271 16.819 31.6271 16.8921C31.7271 16.9652 31.8409 17.0173 31.9615 17.0453C32.0822 17.0734 32.2073 17.0767 32.3293 17.0552C32.4513 17.0337 32.5676 16.9878 32.6714 16.9202C32.7752 16.8526 32.8643 16.7647 32.9333 16.6618C33.0022 16.5589 33.0497 16.4431 33.0728 16.3214C33.096 16.1998 33.0942 16.0746 33.0678 15.9536L31.3734 6.34625C31.3112 5.97881 31.397 5.6017 31.612 5.29731C31.827 4.99291 32.1537 4.78598 32.5208 4.72172C32.8879 4.65746 33.2654 4.74111 33.571 4.95437C33.8767 5.16764 34.0854 5.49319 34.1517 5.8599L35.8461 15.4682L35.8489 15.4802L36.4925 19.1291C36.5081 19.2527 36.5486 19.3718 36.6116 19.4793C36.6747 19.5867 36.7589 19.6802 36.8592 19.7541C36.9595 19.828 37.0737 19.8808 37.195 19.9091C37.3163 19.9375 37.4421 19.941 37.5647 19.9193C37.6874 19.8976 37.8044 19.8512 37.9086 19.7829C38.0127 19.7146 38.102 19.6259 38.1708 19.5221C38.2396 19.4182 38.2867 19.3015 38.309 19.179C38.3314 19.0564 38.3286 18.9306 38.3008 18.8092L36.6065 9.20088C36.5487 8.83529 36.637 8.46165 36.8523 8.16057C37.0676 7.85949 37.3926 7.65511 37.7572 7.59152C38.1218 7.52794 38.4968 7.61024 38.8013 7.82068C39.1058 8.03112 39.3154 8.35282 39.3848 8.71638L41.1251 18.5913C41.3863 20.0799 41.2982 21.6088 40.8677 23.0576C40.2086 25.2609 40.0144 27.5771 40.2975 29.8594C40.5807 32.1417 41.3349 34.3403 42.5125 36.3158C37.5341 40.4971 32.142 41.5102 26.0622 39.4048C26.5277 36.495 26.5602 33.5323 26.1588 30.6129C26.0983 30.1696 25.9311 29.7475 25.6717 29.3829C25.4123 29.0183 25.0684 28.7211 24.6694 28.5186ZM43.8014 39.6696C38.3946 44.1966 32.5511 45.2796 25.94 42.9757C25.8208 42.9274 25.7125 42.8557 25.6215 42.7647C25.5306 42.6738 25.4588 42.5655 25.4105 42.4463C25.3623 42.3271 25.3384 42.1994 25.3405 42.0708C25.3425 41.9422 25.3703 41.8154 25.4224 41.6977C25.4858 41.5313 25.5465 41.3613 25.6026 41.1893C28.6137 42.3141 31.8743 42.5976 35.0344 42.0093C38.1945 41.421 41.1347 39.9832 43.5394 37.8502L43.9458 38.3972C44.0883 38.5878 44.1528 38.8256 44.1259 39.062C44.0991 39.2985 43.983 39.5158 43.8014 39.6696Z" fill="white"/>
</svg>
