<svg width="307" height="222" viewBox="0 0 307 222" fill="none" xmlns="http://www.w3.org/2000/svg">
<rect width="307" height="222" fill="#0066D0"/>
<mask id="mask0_1161_1587" style="mask-type:alpha" maskUnits="userSpaceOnUse" x="0" y="0" width="307" height="222">
<rect width="307" height="222" fill="#F2F7F9"/>
</mask>
<g mask="url(#mask0_1161_1587)">
<g opacity="0.4">
<mask id="mask1_1161_1587" style="mask-type:luminance" maskUnits="userSpaceOnUse" x="91" y="-45" width="258" height="158">
<path d="M337.871 82.2043L336.953 80.7223C290.487 89.022 235.95 83.6738 203.247 29.296C175.083 -17.53 150.629 -38.0385 127.435 -42.2793L125.635 -40.882C148.869 -37.3107 173.432 -17.1333 201.949 30.2806C235.246 85.6319 290.799 90.7844 337.871 82.2043ZM339.085 84.1626L338.171 82.6882C290.848 92.0345 234.047 88.0178 200.381 32.0352C172 -15.1595 147.381 -35.6186 124.028 -39.6456L122.205 -38.2312C145.604 -34.9002 170.34 -14.7779 199.083 33.0198C233.347 89.9834 291.187 93.7874 339.085 84.1626ZM340.262 86.0604L339.357 84.6011C291.268 94.9675 232.149 92.3694 197.52 34.7819C168.91 -12.7832 144.126 -33.193 120.614 -36.9853L118.777 -35.5596C142.349 -32.4747 167.247 -12.4224 196.222 35.7665C231.449 94.335 291.609 96.7072 340.262 86.0604ZM341.401 87.8977L340.501 86.446C291.723 97.8173 230.262 96.7228 194.659 37.5287C165.821 -10.4202 140.878 -30.7732 117.184 -34.3346L115.325 -32.8918C139.065 -30.0604 164.13 -10.0707 193.35 38.5114C229.56 98.7017 292.082 99.5323 341.401 87.8977ZM342.503 89.6746L341.607 88.2304C292.24 100.574 228.368 101.082 191.793 40.2678C162.733 -8.05721 137.618 -28.3552 113.759 -31.6762L111.878 -30.2164C135.793 -27.6443 161.036 -7.73611 190.491 41.2449C227.67 103.068 292.613 102.278 342.503 89.6746ZM343.562 91.3833L342.676 89.9543C292.823 103.246 226.479 105.449 188.928 43.007C159.634 -5.69609 134.351 -25.9315 110.319 -29.0065L108.424 -27.5354C132.509 -25.2301 157.926 -5.39011 187.63 43.9916C225.798 107.445 293.211 104.938 343.562 91.3833ZM344.598 93.0543L343.712 91.6253C293.468 105.825 224.604 109.838 186.067 45.7538C156.536 -3.34821 131.079 -23.5154 106.879 -26.3368L104.954 -24.8429C129.225 -22.8159 154.815 -3.06492 184.765 46.7308C223.923 111.834 293.87 107.506 344.598 93.0543ZM345.596 94.6648L344.715 93.2434C294.187 108.314 222.746 114.237 183.201 48.4929C153.434 -1.0079 127.8 -21.0936 103.425 -23.6558L101.485 -22.1505C125.929 -20.4035 151.696 -0.734036 181.904 49.4775C222.067 116.254 294.616 109.985 345.596 94.6648ZM346.567 96.23L345.69 94.816C295.003 110.715 220.894 118.664 180.34 51.2397C150.325 1.33811 124.528 -18.6774 99.9703 -20.9747L98.0015 -19.4468C122.634 -17.9911 148.587 1.57792 179.038 52.2167C220.22 120.688 295.45 112.362 346.567 96.23ZM347.504 97.7421L346.632 96.3358C295.923 113.002 219.057 123.114 177.475 53.9788C147.213 3.66331 121.232 -16.2651 96.5012 -18.2823L94.5104 -16.7373C119.33 -15.5731 145.459 3.89366 176.177 54.9634C218.387 125.146 296.384 114.638 347.504 97.7421ZM130.841 -44.9338C153.872 -40.4659 178.169 -19.9138 206.107 26.5493C237.849 79.3222 290.149 85.9244 335.682 78.6733L336.61 80.1704C290.452 87.7058 237.132 81.2784 204.805 27.5263C176.516 -19.5039 152.112 -39.7381 129.044 -43.5497L130.837 -44.9414L130.841 -44.9338ZM348.418 99.2165C297.431 116.816 216.577 129.641 173.316 57.7102C142.338 6.20375 116.022 -13.1626 91.0047 -14.0165L93.0247 -15.5842C117.941 -13.8452 144.099 6.00174 174.606 56.7312C217.235 127.607 296.935 115.195 347.539 97.8159L348.411 99.2222L348.418 99.2165Z" fill="white"/>
</mask>
<g mask="url(#mask1_1161_1587)">
<path d="M217.404 -112.114L91.0039 -14.0137L222.013 197.306L348.413 99.2061L217.404 -112.114Z" fill="white"/>
</g>
</g>
</g>
</svg>
