<svg width="19" height="27" viewBox="0 0 19 27" fill="none" xmlns="http://www.w3.org/2000/svg">
<path d="M12.7656 21.1458H16.7031C17.9688 21.1458 18.9531 20.1262 18.9531 18.8958V14.3958C18.9531 13.1301 17.9688 12.1458 16.7031 12.1458H14.4531V11.302C14.4531 10.2122 15.3672 9.33325 16.4219 9.33325H16.9844C17.793 9.33325 18.3906 8.70044 18.3906 7.927V6.802C18.3906 5.99341 17.793 5.39575 16.9844 5.39575H16.4219C13.1875 5.39575 10.5156 8.03247 10.5156 11.302V18.8958C10.5156 20.1262 11.5352 21.1458 12.7656 21.1458ZM11.6406 11.302C11.6406 8.63013 13.7852 6.52075 16.4219 6.52075H16.9844C17.1602 6.52075 17.2656 6.62622 17.2656 6.802V7.927C17.2656 8.06763 17.1602 8.20825 16.9844 8.20825H16.4219C14.7344 8.20825 13.3281 9.57935 13.3281 11.302V13.2708H16.7031C17.336 13.2708 17.8281 13.7629 17.8281 14.3958V18.8958C17.8281 19.4934 17.336 20.0208 16.7031 20.0208H12.7656C12.168 20.0208 11.6406 19.4934 11.6406 18.8958V11.302ZM3.20314 21.1458H7.14064C8.40627 21.1458 9.39064 20.1262 9.39064 18.8958V14.3958C9.39064 13.1301 8.40627 12.1458 7.14064 12.1458H4.89064V11.302C4.89064 10.2122 5.80471 9.33325 6.85939 9.33325H7.42189C8.23049 9.33325 8.82814 8.70044 8.82814 7.927V6.802C8.82814 5.99341 8.23049 5.39575 7.42189 5.39575H6.85939C3.62502 5.39575 0.953143 8.03247 0.953143 11.302V18.8958C0.953143 20.1262 1.97267 21.1458 3.20314 21.1458ZM2.07814 11.302C2.07814 8.63013 4.22267 6.52075 6.85939 6.52075H7.42189C7.59767 6.52075 7.70314 6.62622 7.70314 6.802V7.927C7.70314 8.06763 7.59767 8.20825 7.42189 8.20825H6.85939C5.17189 8.20825 3.76564 9.57935 3.76564 11.302V13.2708H7.14064C7.77346 13.2708 8.26564 13.7629 8.26564 14.3958V18.8958C8.26564 19.4934 7.77346 20.0208 7.14064 20.0208H3.20314C2.60549 20.0208 2.07814 19.4934 2.07814 18.8958V11.302Z" fill="#008080"/>
</svg>
