<svg width="78" height="14" viewBox="0 0 78 14" fill="none" xmlns="http://www.w3.org/2000/svg">
<path d="M12.8024 5.35441C12.7272 5.13391 12.5283 4.97816 12.2961 4.96007L8.97053 4.69582L7.53145 1.51024C7.43753 1.30082 7.22928 1.16666 7.00003 1.16666C6.77078 1.16666 6.56253 1.30082 6.46861 1.50966L5.02953 4.69582L1.70395 4.96007C1.47586 4.97816 1.27928 5.12807 1.2017 5.34332C1.12411 5.55857 1.17895 5.79949 1.34286 5.95932L3.80045 8.35507L2.93128 12.1187C2.87761 12.3515 2.97153 12.5936 3.16811 12.7295C3.26845 12.7983 3.38395 12.8333 3.50003 12.8333C3.61261 12.8333 3.72578 12.8007 3.82378 12.7353L7.00003 10.6178L10.1763 12.7353C10.3793 12.8707 10.6459 12.8654 10.8442 12.7213C11.0414 12.5772 11.1283 12.3247 11.0612 12.0902L9.99428 8.35682L12.6403 5.97566C12.8135 5.81932 12.8771 5.57549 12.8024 5.35441Z" fill="#FFBA08"/>
<path d="M28.8024 5.35441C28.7272 5.13391 28.5283 4.97816 28.2961 4.96007L24.9705 4.69582L23.5314 1.51024C23.4375 1.30082 23.2293 1.16666 23 1.16666C22.7708 1.16666 22.5625 1.30082 22.4686 1.50966L21.0295 4.69582L17.7039 4.96007C17.4759 4.97816 17.2793 5.12807 17.2017 5.34332C17.1241 5.55857 17.1789 5.79949 17.3429 5.95932L19.8004 8.35507L18.9313 12.1187C18.8776 12.3515 18.9715 12.5936 19.1681 12.7295C19.2684 12.7983 19.3839 12.8333 19.5 12.8333C19.6126 12.8333 19.7258 12.8007 19.8238 12.7353L23 10.6178L26.1763 12.7353C26.3793 12.8707 26.6459 12.8654 26.8442 12.7213C27.0414 12.5772 27.1283 12.3247 27.0612 12.0902L25.9943 8.35682L28.6403 5.97566C28.8135 5.81932 28.8771 5.57549 28.8024 5.35441Z" fill="#FFBA08"/>
<path d="M44.8024 5.35441C44.7272 5.13391 44.5283 4.97816 44.2961 4.96007L40.9705 4.69582L39.5314 1.51024C39.4375 1.30082 39.2293 1.16666 39 1.16666C38.7708 1.16666 38.5625 1.30082 38.4686 1.50966L37.0295 4.69582L33.7039 4.96007C33.4759 4.97816 33.2793 5.12807 33.2017 5.34332C33.1241 5.55857 33.1789 5.79949 33.3429 5.95932L35.8004 8.35507L34.9313 12.1187C34.8776 12.3515 34.9715 12.5936 35.1681 12.7295C35.2684 12.7983 35.3839 12.8333 35.5 12.8333C35.6126 12.8333 35.7258 12.8007 35.8238 12.7353L39 10.6178L42.1763 12.7353C42.3793 12.8707 42.6459 12.8654 42.8442 12.7213C43.0414 12.5772 43.1283 12.3247 43.0612 12.0902L41.9943 8.35682L44.6403 5.97566C44.8135 5.81932 44.8771 5.57549 44.8024 5.35441Z" fill="#FFBA08"/>
<path d="M60.8024 5.35441C60.7272 5.13391 60.5283 4.97816 60.2961 4.96007L56.9705 4.69582L55.5314 1.51024C55.4375 1.30082 55.2293 1.16666 55 1.16666C54.7708 1.16666 54.5625 1.30082 54.4686 1.50966L53.0295 4.69582L49.7039 4.96007C49.4759 4.97816 49.2793 5.12807 49.2017 5.34332C49.1241 5.55857 49.1789 5.79949 49.3429 5.95932L51.8004 8.35507L50.9313 12.1187C50.8776 12.3515 50.9715 12.5936 51.1681 12.7295C51.2684 12.7983 51.3839 12.8333 51.5 12.8333C51.6126 12.8333 51.7258 12.8007 51.8238 12.7353L55 10.6178L58.1763 12.7353C58.3793 12.8707 58.6459 12.8654 58.8442 12.7213C59.0414 12.5772 59.1283 12.3247 59.0612 12.0902L57.9943 8.35682L60.6403 5.97566C60.8135 5.81932 60.8771 5.57549 60.8024 5.35441Z" fill="#FFBA08"/>
<path d="M76.8024 5.35441C76.7272 5.13391 76.5283 4.97816 76.2961 4.96007L72.9705 4.69582L71.5314 1.51024C71.4375 1.30082 71.2293 1.16666 71 1.16666C70.7708 1.16666 70.5625 1.30082 70.4686 1.50966L69.0295 4.69582L65.7039 4.96007C65.4759 4.97816 65.2793 5.12807 65.2017 5.34332C65.1241 5.55857 65.1789 5.79949 65.3429 5.95932L67.8004 8.35507L66.9313 12.1187C66.8776 12.3515 66.9715 12.5936 67.1681 12.7295C67.2684 12.7983 67.3839 12.8333 67.5 12.8333C67.6126 12.8333 67.7258 12.8007 67.8238 12.7353L71 10.6178L74.1763 12.7353C74.3793 12.8707 74.6459 12.8654 74.8442 12.7213C75.0414 12.5772 75.1283 12.3247 75.0612 12.0902L73.9943 8.35682L76.6403 5.97566C76.8135 5.81932 76.8771 5.57549 76.8024 5.35441Z" fill="#FFBA08"/>
</svg>
