<svg width="45" height="40" viewBox="0 0 45 40" fill="none" xmlns="http://www.w3.org/2000/svg">
<path d="M42.8839 33.5513C43.6516 32.8691 44.186 31.9822 44.4176 31.0062C44.6492 30.0303 44.5672 29.0104 44.1824 28.0795C43.7977 27.1486 43.1278 26.3497 42.2602 25.7869C41.3926 25.2241 40.3674 24.9235 39.3181 24.9242H37.2698C37.4687 24.536 37.5732 24.11 37.5756 23.678C37.5751 23.1425 37.4198 22.6175 37.1267 22.1608C36.8336 21.704 36.414 21.3333 35.9142 21.0892C36.6818 20.407 37.2162 19.5201 37.4478 18.5441C37.6794 17.5682 37.5975 16.5483 37.2127 15.6174C36.8279 14.6865 36.1581 13.8876 35.2905 13.3248C34.4228 12.762 33.3976 12.4614 32.3483 12.4621H30.3001C30.4989 12.0739 30.6034 11.6479 30.6059 11.2159C30.6054 10.6804 30.4501 10.1554 30.1569 9.69868C29.8638 9.24195 29.4443 8.87115 28.9444 8.6271C29.712 7.94485 30.2465 7.05801 30.4781 6.08204C30.7097 5.10608 30.6277 4.08623 30.2429 3.15529C29.8582 2.22436 29.1883 1.42548 28.3207 0.862699C27.4531 0.299914 26.4279 -0.000700764 25.3785 1.22665e-06H8.38976C6.73772 -0.000558533 5.13295 0.525876 3.83088 1.49551C2.52882 2.46515 1.60429 3.82227 1.20446 5.35084C0.804629 6.87942 0.952471 8.49162 1.62445 9.93082C2.29644 11.37 3.45394 12.5535 4.91273 13.2929C3.72649 13.8937 2.73412 14.791 2.04207 15.8887C1.35001 16.9865 0.984375 18.2431 0.984375 19.524C0.984375 20.8048 1.35001 22.0615 2.04207 23.1592C2.73412 24.2569 3.72649 25.1543 4.91273 25.755C3.45394 26.4944 2.29644 27.6779 1.62445 29.1171C0.952471 30.5563 0.804629 32.1685 1.20446 33.6971C1.60429 35.2257 2.52882 36.5828 3.83088 37.5524C5.13295 38.522 6.73772 39.0485 8.38976 39.0479H41.4961C42.1805 39.0477 42.845 38.828 43.3826 38.424C43.9202 38.02 44.2996 37.4553 44.4599 36.8208C44.6201 36.1862 44.5518 35.5187 44.2659 34.9257C43.9801 34.3326 43.4933 33.8485 42.8839 33.5513ZM2.72684 7.06186C2.72868 5.63017 3.3259 4.25761 4.38751 3.24525C5.44911 2.23289 6.88843 1.66337 8.38976 1.66161H25.3785C26.3028 1.66161 27.1892 2.01174 27.8427 2.63497C28.4963 3.25819 28.8634 4.10347 28.8634 4.98484C28.8634 5.86622 28.4963 6.71149 27.8427 7.33472C27.1892 7.95794 26.3028 8.30807 25.3785 8.30807H9.26098C8.91439 8.30807 8.58199 8.17677 8.33692 7.94306C8.09184 7.70935 7.95415 7.39237 7.95415 7.06186C7.95415 6.73134 8.09184 6.41436 8.33692 6.18065C8.58199 5.94694 8.91439 5.81565 9.26098 5.81565H24.5073C24.7384 5.81565 24.96 5.72812 25.1234 5.57231C25.2868 5.4165 25.3785 5.20519 25.3785 4.98484C25.3785 4.7645 25.2868 4.55318 25.1234 4.39737C24.96 4.24157 24.7384 4.15403 24.5073 4.15403H9.26098C8.45227 4.15404 7.67667 4.46039 7.10483 5.00572C6.53298 5.55104 6.21172 6.29066 6.21172 7.06186C6.21172 7.83306 6.53298 8.57268 7.10483 9.118C7.67667 9.66332 8.45227 9.96968 9.26098 9.96968H27.5566C27.9032 9.96968 28.2356 10.101 28.4807 10.3347C28.7257 10.5684 28.8634 10.8854 28.8634 11.2159C28.8634 11.5464 28.7257 11.8634 28.4807 12.0971C28.2356 12.3308 27.9032 12.4621 27.5566 12.4621H8.38976C6.88843 12.4603 5.44911 11.8908 4.38751 10.8785C3.3259 9.8661 2.72868 8.49355 2.72684 7.06186ZM2.72684 19.524C2.72868 18.0923 3.3259 16.7197 4.38751 15.7074C5.44911 14.695 6.88843 14.1255 8.38976 14.1237H32.3483C33.2725 14.1237 34.1589 14.4738 34.8125 15.0971C35.466 15.7203 35.8332 16.5656 35.8332 17.4469C35.8332 18.3283 35.466 19.1736 34.8125 19.7968C34.1589 20.42 33.2725 20.7702 32.3483 20.7702H9.26098C8.91439 20.7702 8.58199 20.6389 8.33692 20.4052C8.09184 20.1715 7.95415 19.8545 7.95415 19.524C7.95415 19.1934 8.09184 18.8765 8.33692 18.6428C8.58199 18.409 8.91439 18.2778 9.26098 18.2778H31.4771C31.7081 18.2778 31.9297 18.1902 32.0931 18.0344C32.2565 17.8786 32.3483 17.6673 32.3483 17.4469C32.3483 17.2266 32.2565 17.0153 32.0931 16.8595C31.9297 16.7037 31.7081 16.6161 31.4771 16.6161H9.26098C8.45227 16.6161 7.67667 16.9225 7.10483 17.4678C6.53298 18.0131 6.21172 18.7528 6.21172 19.524C6.21172 20.2952 6.53298 21.0348 7.10483 21.5801C7.67667 22.1254 8.45227 22.4318 9.26098 22.4318H34.5263C34.8729 22.4318 35.2053 22.5631 35.4504 22.7968C35.6955 23.0305 35.8332 23.3475 35.8332 23.678C35.8332 24.0085 35.6955 24.3255 35.4504 24.5592C35.2053 24.7929 34.8729 24.9242 34.5263 24.9242H8.38976C6.88843 24.9224 5.44911 24.3529 4.38751 23.3406C3.3259 22.3282 2.72868 20.9557 2.72684 19.524ZM38.4468 29.0782H9.26098C8.45227 29.0782 7.67667 29.3846 7.10483 29.9299C6.53298 30.4752 6.21172 31.2149 6.21172 31.9861C6.21172 32.7573 6.53298 33.4969 7.10483 34.0422C7.67667 34.5875 8.45227 34.8939 9.26098 34.8939H41.4961C41.8427 34.8939 42.1751 35.0252 42.4202 35.2589C42.6652 35.4926 42.8029 35.8096 42.8029 36.1401C42.8029 36.4706 42.6652 36.7876 42.4202 37.0213C42.1751 37.255 41.8427 37.3863 41.4961 37.3863H8.38976C6.88786 37.3863 5.44747 36.8174 4.38547 35.8046C3.32347 34.7919 2.72684 33.4183 2.72684 31.9861C2.72684 30.5538 3.32347 29.1803 4.38547 28.1675C5.44747 27.1548 6.88786 26.5858 8.38976 26.5858H39.3181C40.2423 26.5858 41.1287 26.9359 41.7822 27.5592C42.4358 28.1824 42.8029 29.0277 42.8029 29.909C42.8029 30.7904 42.4358 31.6357 41.7822 32.2589C41.1287 32.8821 40.2423 33.2323 39.3181 33.2323H9.26098C8.91439 33.2323 8.58199 33.101 8.33692 32.8673C8.09184 32.6336 7.95415 32.3166 7.95415 31.9861C7.95415 31.6555 8.09184 31.3386 8.33692 31.1049C8.58199 30.8711 8.91439 30.7398 9.26098 30.7398H38.4468C38.6779 30.7398 38.8995 30.6523 39.0629 30.4965C39.2263 30.3407 39.3181 30.1294 39.3181 29.909C39.3181 29.6887 39.2263 29.4774 39.0629 29.3216C38.8995 29.1658 38.6779 29.0782 38.4468 29.0782Z" fill="#0066D0"/>
</svg>
